<svg width="355" height="360" viewBox="0 0 355 360" fill="none" xmlns="http://www.w3.org/2000/svg">
<path d="M152.447 28.8361C150.98 29.0974 149.474 29.0317 148.035 28.6439C146.791 28.3078 145.668 27.6289 144.792 26.6848C143.936 25.7329 143.385 24.5462 143.212 23.2783C143.148 23.0592 143.133 22.8287 143.17 22.6035C143.206 22.3783 143.292 22.164 143.422 21.9761C143.726 21.6899 144.117 21.514 144.533 21.4765C144.906 21.411 145.289 21.4365 145.65 21.5511C145.82 21.6093 145.969 21.7139 146.082 21.8529C146.194 21.9919 146.266 22.1598 146.287 22.3374C146.42 23.1352 146.746 23.8885 147.237 24.5319C147.721 25.1544 148.381 25.6166 149.133 25.858C150.029 26.1309 150.979 26.1827 151.9 26.0087C152.569 25.9452 153.218 25.7468 153.808 25.4254C154.399 25.1041 154.917 24.6665 155.334 24.1391C155.718 23.5147 155.975 22.8204 156.09 22.0963C156.204 21.3722 156.174 20.6325 156.001 19.9201L153.406 3.3403L148.529 4.10257C148.37 4.13123 148.205 4.11702 148.053 4.06139C147.901 4.00576 147.766 3.91071 147.663 3.78596C147.42 3.51308 147.264 3.17434 147.215 2.81271C147.164 2.48185 147.203 2.14359 147.327 1.83261C147.386 1.67563 147.489 1.53857 147.623 1.43702C147.757 1.33547 147.917 1.2735 148.084 1.25818L154.687 0.226012C155.036 0.166868 155.394 0.210893 155.717 0.352653C155.873 0.418846 156.008 0.525523 156.108 0.661572C156.208 0.797622 156.27 0.958065 156.287 1.12619L159.152 19.4285C159.489 21.0708 159.376 22.7733 158.826 24.357C158.344 25.6057 157.479 26.6705 156.356 27.3998C155.17 28.15 153.837 28.6396 152.447 28.8361Z" fill="#87D303"/>
<path d="M176.423 26.9281C175.121 26.9548 173.837 26.6186 172.716 25.9574C171.586 25.308 170.631 24.3947 169.932 23.2956C169.237 22.2233 168.859 20.9761 168.843 19.6985L168.782 15.8685C168.754 14.5968 169.084 13.3428 169.733 12.2486C170.384 11.1357 171.305 10.2041 172.411 9.53951C173.532 8.85228 174.819 8.48319 176.134 8.47189C177.444 8.44057 178.738 8.76186 179.881 9.40212C181.007 10.022 181.963 10.909 182.665 11.985C183.373 13.0691 183.752 14.3346 183.757 15.629L183.818 19.462C183.837 20.7315 183.499 21.9808 182.841 23.0673C182.18 24.1967 181.253 25.1479 180.141 25.8386C179.027 26.5402 177.74 26.9175 176.423 26.9281ZM176.378 24.087C177.157 24.0841 177.918 23.8483 178.562 23.4099C179.206 22.9722 179.736 22.387 180.108 21.7031C180.488 21.0347 180.682 20.2776 180.672 19.5093L180.611 15.6794C180.599 14.9275 180.386 14.1926 179.993 13.5514C179.598 12.8908 179.051 12.3335 178.398 11.9256C177.737 11.506 176.965 11.2927 176.182 11.3129C175.403 11.3149 174.642 11.5507 173.998 11.99C173.364 12.4199 172.842 12.9943 172.474 13.6656C172.104 14.3219 171.915 15.065 171.929 15.8182L171.99 19.6511C172.003 20.4168 172.214 21.1661 172.603 21.8261C172.988 22.5002 173.534 23.0684 174.193 23.4798C174.846 23.8941 175.607 24.1054 176.381 24.087L176.378 24.087Z" fill="#87D303"/>
<path d="M196.42 4.79789C196.165 4.77451 195.916 4.70094 195.689 4.58138C195.462 4.46182 195.261 4.29864 195.097 4.10118C194.934 3.92397 194.811 3.71431 194.735 3.48603C194.66 3.25776 194.633 3.01606 194.658 2.77688C194.683 2.53882 194.759 2.30906 194.882 2.1038C195.005 1.89854 195.172 1.7228 195.371 1.58898C195.786 1.28636 196.301 1.15442 196.811 1.22036C197.317 1.26291 197.787 1.50279 198.119 1.88827C198.279 2.0639 198.399 2.27189 198.472 2.49816C198.545 2.72443 198.568 2.96368 198.541 3.19973C198.514 3.4371 198.439 3.66639 198.319 3.87308C198.199 4.07977 198.037 4.25935 197.845 4.40047C197.646 4.55914 197.418 4.67613 197.173 4.74443C196.928 4.81272 196.672 4.83091 196.42 4.79789ZM193.917 27.5429C193.516 27.5149 193.138 27.3482 192.847 27.0715C192.728 26.9704 192.634 26.843 192.573 26.6993C192.512 26.5557 192.485 26.3997 192.495 26.2439L194.198 10.6306C194.213 10.4718 194.27 10.3196 194.361 10.189C194.453 10.0584 194.577 9.95383 194.722 9.88547C195.075 9.71229 195.473 9.65068 195.862 9.70881C196.259 9.73903 196.638 9.88495 196.953 10.1285C197.084 10.2233 197.188 10.3514 197.254 10.4995C197.319 10.6476 197.344 10.8104 197.326 10.9713L195.623 26.5856C195.596 26.7417 195.533 26.8893 195.439 27.0162C195.344 27.1432 195.221 27.2457 195.078 27.3155C194.728 27.5194 194.319 27.5995 193.917 27.5429Z" fill="#87D303"/>
<path d="M206.038 29.253C205.643 29.1786 205.287 28.9691 205.03 28.6605C204.924 28.5462 204.845 28.4086 204.801 28.2587C204.757 28.1088 204.749 27.9508 204.777 27.7971L208.298 12.483C208.332 12.327 208.406 12.1824 208.512 12.0634C208.619 11.9444 208.754 11.855 208.906 11.8039C209.277 11.6732 209.679 11.6585 210.059 11.7618C210.417 11.8317 210.743 12.0141 210.99 12.2825C211.098 12.397 211.175 12.5367 211.214 12.6888C211.254 12.841 211.254 13.0005 211.216 13.1529L210.868 14.6672C211.502 13.9869 212.288 13.4662 213.163 13.1476C214.223 12.759 215.377 12.7067 216.469 12.9979C217.624 13.2556 218.676 13.8506 219.493 14.7073C220.353 15.6055 220.974 16.7057 221.298 17.9065C221.621 19.1073 221.637 20.3702 221.344 21.5788L219.157 31.0933C219.124 31.265 219.043 31.4238 218.923 31.5512C218.803 31.6786 218.649 31.7692 218.479 31.8126C218.111 31.9235 217.72 31.9343 217.346 31.844C216.987 31.7601 216.656 31.5836 216.386 31.3321C216.251 31.2198 216.151 31.0713 216.098 30.904C216.044 30.7368 216.04 30.5578 216.085 30.3881L218.271 20.8814C218.44 20.148 218.407 19.3826 218.177 18.666C217.951 17.932 217.556 17.261 217.024 16.7068C216.495 16.147 215.81 15.7582 215.059 15.5905C214.384 15.4395 213.681 15.4673 213.021 15.6711C212.314 15.8792 211.673 16.2655 211.159 16.7929C210.583 17.4042 210.192 18.1659 210.031 18.9899L207.844 28.5043C207.8 28.6563 207.72 28.7956 207.611 28.9107C207.502 29.0257 207.367 29.1132 207.218 29.1658C206.845 29.3263 206.43 29.357 206.038 29.253Z" fill="#87D303"/>
<path d="M245.284 42.8893C244.091 42.3099 243.08 41.4143 242.361 40.3001C241.653 39.2141 241.227 37.9686 241.123 36.6766C241.006 35.4218 241.243 34.1593 241.805 33.0314L246.188 24.2434C246.267 24.1052 246.379 23.9883 246.514 23.9028C246.649 23.8173 246.803 23.7657 246.962 23.7525C247.355 23.6841 247.759 23.7473 248.113 23.9324C248.47 24.1003 248.761 24.3835 248.938 24.7363C249.02 24.8718 249.068 25.0248 249.08 25.1828C249.091 25.3408 249.064 25.4992 249.002 25.6448L244.619 34.4327C244.283 35.1053 244.134 35.8558 244.188 36.6056C244.235 37.3748 244.465 38.1216 244.859 38.7842C245.253 39.4589 245.839 40.0012 246.543 40.3422C247.235 40.6977 248.016 40.8412 248.789 40.7547C249.553 40.6709 250.284 40.4008 250.918 39.9681C251.547 39.5518 252.055 38.9777 252.392 38.3033L256.792 29.4797C256.87 29.3395 256.982 29.2217 257.119 29.1379C257.255 29.054 257.411 29.0069 257.572 29.0012C257.96 28.9537 258.353 29.0245 258.7 29.2043C259.069 29.3662 259.375 29.6453 259.57 29.9985C259.648 30.1318 259.692 30.2822 259.698 30.4364C259.705 30.5907 259.674 30.7442 259.608 30.8837L255.208 39.7056C254.646 40.8459 253.774 41.8049 252.691 42.4729C251.599 43.158 250.354 43.5612 249.067 43.6461C247.76 43.7434 246.452 43.4817 245.284 42.8893Z" fill="#87D303"/>
<path d="M263.69 53.7262C262.784 53.1248 261.979 52.3838 261.305 51.5309C260.783 50.8881 260.385 50.1543 260.131 49.3665C260.031 49.1231 259.986 48.8606 260 48.5978C260.013 48.3351 260.085 48.0785 260.209 47.8465C260.333 47.6727 260.493 47.5271 260.677 47.4194C260.875 47.2982 261.095 47.2178 261.324 47.1831C261.528 47.1424 261.74 47.1835 261.913 47.2974C262.198 47.5277 262.394 47.8495 262.468 48.208C262.639 48.749 262.874 49.2675 263.168 49.7522C263.66 50.4928 264.306 51.1189 265.062 51.588C265.825 52.24 266.798 52.594 267.801 52.5843C268.116 52.552 268.419 52.453 268.692 52.2941C268.965 52.1351 269.201 51.9198 269.384 51.6625C269.586 51.4047 269.731 51.1075 269.809 50.7902C269.888 50.4729 269.9 50.1426 269.842 49.8206C269.691 49.165 269.398 48.5504 268.984 48.0196C268.537 47.421 268.052 46.8054 267.53 46.1729C267.017 45.5582 266.558 44.8999 266.159 44.2054C265.775 43.549 265.564 42.8059 265.546 42.0457C265.572 41.1616 265.877 40.3081 266.416 39.6072C266.91 38.9043 267.563 38.3289 268.323 37.9287C269.176 37.4829 270.14 37.2945 271.099 37.3862C272.348 37.5361 273.535 38.0159 274.537 38.7761C275.252 39.263 275.909 39.8303 276.494 40.4668C276.989 40.985 277.402 41.5757 277.718 42.2184C277.971 42.7692 277.994 43.1946 277.787 43.4947C277.657 43.657 277.499 43.7941 277.32 43.8994C277.097 44.0463 276.849 44.152 276.589 44.2114C276.469 44.2418 276.344 44.2459 276.222 44.2234C276.1 44.2008 275.984 44.1522 275.883 44.0807C275.644 43.886 275.452 43.6403 275.32 43.3617C275.086 42.9467 274.823 42.549 274.533 42.1719C274.139 41.6747 273.668 41.2438 273.138 40.8957C272.581 40.4737 271.925 40.2013 271.233 40.1047C270.727 40.0427 270.214 40.1188 269.749 40.3249C269.371 40.4948 269.045 40.7615 268.804 41.0979C268.631 41.3223 268.515 41.5848 268.464 41.8634C268.413 42.1421 268.429 42.4289 268.512 42.6999C268.722 43.3144 269.044 43.8849 269.461 44.383C269.925 44.9661 270.419 45.5723 270.943 46.2017C271.462 46.8261 271.911 47.5063 272.28 48.2299C272.646 48.9396 272.827 49.7301 272.806 50.5282C272.735 51.4829 272.388 52.3964 271.806 53.157C271.431 53.7502 270.923 54.2484 270.322 54.6124C269.721 54.9765 269.045 55.1965 268.345 55.2552C266.662 55.3068 265.014 54.7656 263.69 53.7262Z" fill="#87D303"/>
<path d="M273.751 65.2425C273.551 65.0667 273.404 64.8375 273.329 64.5817C273.283 64.4571 273.272 64.3223 273.297 64.1919C273.322 64.0615 273.382 63.9404 273.471 63.8417C273.564 63.7291 273.679 63.6371 273.809 63.5715L275.692 62.5745C275.517 62.2264 275.447 61.8352 275.489 61.4481C275.528 61.0581 275.687 60.6898 275.943 60.3934C276.108 60.1916 276.313 60.0253 276.543 59.9044C276.774 59.7835 277.027 59.7105 277.287 59.6898C277.543 59.6622 277.803 59.688 278.048 59.7656C278.294 59.8433 278.521 59.971 278.714 60.1408C279.108 60.4715 279.359 60.9408 279.416 61.4515C279.45 61.7203 279.425 61.9934 279.342 62.2516C279.259 62.5098 279.121 62.7467 278.937 62.9459C278.866 63.0239 278.79 63.0966 278.708 63.1633C278.526 63.3047 278.333 63.4317 278.131 63.5434C277.854 63.7056 277.443 63.9321 276.899 64.223C276.355 64.5139 275.626 64.8983 274.712 65.3764C274.554 65.4658 274.369 65.4945 274.191 65.4571C274.029 65.4233 273.878 65.3495 273.751 65.2425Z" fill="#87D303"/>
<path d="M297.603 85.4442C296.729 84.3614 296.092 83.1078 295.733 81.764C295.393 80.4585 295.474 79.0788 295.966 77.8225C296.633 76.2824 297.706 74.9526 299.071 73.9753L308.025 66.9084C309.294 65.805 310.844 65.0746 312.504 64.7981C313.846 64.6223 315.21 64.8683 316.407 65.5019C317.639 66.1682 318.717 67.0852 319.573 68.1937C320.537 69.3487 321.227 70.7067 321.591 72.166C321.888 73.3771 321.849 74.6463 321.478 75.837C321.111 76.9653 320.412 77.9565 319.471 78.681C319.295 78.8611 319.085 79.0042 318.853 79.1021C318.621 79.2 318.371 79.2507 318.119 79.2512C317.705 79.1396 317.346 78.8821 317.107 78.5262C316.831 78.2218 316.66 77.8367 316.62 77.4279C316.615 77.2673 316.646 77.1077 316.712 76.9612C316.778 76.8147 316.877 76.6852 317.001 76.5825C317.329 76.2912 317.626 75.9673 317.889 75.6158C318.211 75.1883 318.449 74.7037 318.59 74.1877C318.748 73.5773 318.747 72.9364 318.587 72.3265C318.349 71.4804 317.929 70.6964 317.356 70.0293C316.969 69.4673 316.473 68.9897 315.896 68.6252C315.319 68.2608 314.674 68.0172 314 67.9093C312.521 67.8616 311.084 68.4019 310.004 69.4118L301.049 76.4787C300.434 76.8837 299.907 77.4072 299.498 78.0186C299.088 78.6301 298.805 79.3171 298.665 80.0393C298.626 80.7323 298.725 81.4262 298.956 82.0806C299.188 82.735 299.548 83.3367 300.015 83.8508C300.519 84.5499 301.172 85.1291 301.926 85.5471C302.465 85.8296 303.071 85.9622 303.679 85.931C304.217 85.8917 304.743 85.7543 305.232 85.5257C305.675 85.3199 306.107 85.0916 306.527 84.8416C306.662 84.7409 306.819 84.6734 306.985 84.6447C307.152 84.616 307.322 84.6269 307.483 84.6764C307.846 84.8194 308.16 85.0651 308.385 85.3834C308.684 85.7027 308.853 86.1215 308.86 86.5584C308.737 87.0551 308.421 87.4826 307.983 87.7472C307.044 88.5035 305.901 88.9635 304.699 89.0686C303.432 89.1677 302.163 88.915 301.031 88.3385C299.683 87.6461 298.511 86.6563 297.603 85.4442Z" fill="#87D303"/>
<path d="M308.968 102.139C308.289 101.018 308.035 99.6917 308.25 98.3994C308.404 97.7103 308.714 97.0656 309.156 96.5149C309.598 95.9642 310.161 95.5221 310.8 95.2228C311.293 94.8983 311.846 94.6752 312.427 94.5665C313.007 94.4578 313.603 94.4657 314.18 94.5897C315.323 94.9289 316.341 95.5941 317.111 96.5035C318.138 97.6605 319.034 98.9265 319.784 100.279L320.686 101.858L321.37 101.467C322.021 101.096 322.6 100.61 323.078 100.034C323.563 99.4597 323.876 98.7611 323.983 98.0177C324.071 97.1533 323.863 96.2845 323.392 95.5539C323.059 94.9239 322.627 94.3513 322.113 93.858C321.78 93.5534 321.413 93.288 321.019 93.0668C320.756 92.9477 320.533 92.7572 320.373 92.5171C320.282 92.3579 320.237 92.1764 320.245 91.9932C320.252 91.81 320.311 91.6326 320.414 91.4812C320.596 91.1478 320.863 90.8689 321.189 90.6732C321.531 90.4779 321.982 90.5419 322.542 90.8652C323.179 91.2513 323.757 91.7275 324.257 92.279C324.833 92.8889 325.335 93.5648 325.752 94.2925C326.552 95.5424 326.965 97.0006 326.938 98.484C326.872 99.6894 326.444 100.847 325.71 101.806C324.96 102.776 324.022 103.585 322.952 104.183L314.523 108.992C314.384 109.067 314.23 109.108 314.073 109.112C313.915 109.116 313.759 109.083 313.617 109.015C313.253 108.853 312.955 108.572 312.773 108.217C312.581 107.9 312.505 107.526 312.557 107.159C312.57 107.002 312.621 106.851 312.705 106.717C312.788 106.584 312.902 106.472 313.037 106.391L314.354 105.64C313.327 105.429 312.335 105.074 311.407 104.585C310.372 104.026 309.524 103.176 308.968 102.139ZM311.642 101.762C312.023 102.417 312.575 102.957 313.238 103.325C313.907 103.714 314.646 103.968 315.413 104.07C316.052 104.187 316.712 104.089 317.29 103.793L319.001 102.816L318.353 101.681C317.857 100.807 317.304 99.9667 316.698 99.166C316.218 98.49 315.578 97.9441 314.835 97.5773C314.481 97.432 314.096 97.3767 313.716 97.4165C313.335 97.4562 312.971 97.5897 312.655 97.8049C312.29 97.9737 311.969 98.2245 311.717 98.5376C311.465 98.8508 311.289 99.2178 311.202 99.6102C311.091 100.355 311.245 101.116 311.639 101.759L311.642 101.762Z" fill="#87D303"/>
<path d="M317.9 119.012C317.736 118.652 317.704 118.246 317.807 117.864C317.839 117.711 317.906 117.568 318.002 117.445C318.099 117.322 318.223 117.224 318.365 117.157L332.899 111.177C333.046 111.114 333.207 111.091 333.366 111.109C333.524 111.127 333.676 111.186 333.805 111.28C334.122 111.502 334.365 111.816 334.499 112.18C334.652 112.516 334.694 112.892 334.618 113.253C334.587 113.408 334.518 113.551 334.417 113.672C334.315 113.792 334.185 113.885 334.039 113.942L332.406 114.614C333.03 114.683 333.639 114.847 334.213 115.099C334.842 115.374 335.419 115.752 335.92 116.219C336.461 116.723 336.884 117.341 337.157 118.028L337.645 119.212C337.707 119.365 337.734 119.53 337.723 119.694C337.713 119.859 337.666 120.019 337.586 120.163C337.421 120.494 337.137 120.751 336.792 120.883C336.456 121.029 336.078 121.044 335.731 120.926C335.572 120.88 335.426 120.8 335.303 120.69C335.18 120.581 335.083 120.445 335.019 120.293L334.531 119.109C334.215 118.353 333.692 117.702 333.023 117.23C332.3 116.712 331.455 116.388 330.57 116.29C329.54 116.186 328.501 116.354 327.556 116.776L319.563 120.065C319.413 120.116 319.254 120.132 319.097 120.109C318.94 120.087 318.791 120.028 318.661 119.936C318.311 119.722 318.043 119.397 317.9 119.012Z" fill="#87D303"/>
<path d="M325.309 141.527C324.893 140.081 324.815 138.558 325.081 137.077C325.319 135.762 325.913 134.537 326.8 133.536C327.72 132.53 328.92 131.821 330.246 131.5L334.062 130.486C335.282 130.153 336.572 130.179 337.778 130.56C339.002 130.937 340.112 131.615 341.006 132.53C341.934 133.471 342.594 134.641 342.92 135.921C343.254 137.133 343.274 138.41 342.98 139.632C342.698 140.828 342.114 141.933 341.285 142.841C340.419 143.78 339.296 144.442 338.055 144.747C337.343 145 336.57 145.028 335.841 144.826C335.358 144.645 334.963 144.286 334.739 143.822C334.505 143.335 334.319 142.827 334.182 142.305L332.045 134.274L330.924 134.572C330.302 134.712 329.721 134.994 329.227 135.398C328.733 135.801 328.341 136.314 328.08 136.895C327.536 138.182 327.464 139.619 327.878 140.953C328.045 141.706 328.369 142.416 328.829 143.036C329.152 143.438 329.51 143.811 329.898 144.151C330.18 144.362 330.39 144.656 330.499 144.99C330.566 145.229 330.541 145.484 330.43 145.706C330.323 145.928 330.17 146.125 329.98 146.284C329.823 146.424 329.637 146.529 329.434 146.59C329.205 146.612 328.973 146.587 328.753 146.517C328.534 146.447 328.331 146.332 328.157 146.181C327.522 145.72 326.983 145.141 326.568 144.476C325.989 143.569 325.563 142.573 325.309 141.527ZM334.083 133.732L335.881 140.488C335.958 140.944 336.156 141.372 336.454 141.727C336.606 141.82 336.778 141.875 336.956 141.889C337.135 141.902 337.313 141.872 337.478 141.803C338.192 141.618 338.845 141.246 339.369 140.727C339.901 140.204 340.29 139.554 340.498 138.837C340.716 138.079 340.717 137.275 340.499 136.517C340.313 135.795 339.945 135.131 339.432 134.589C338.919 134.047 338.276 133.644 337.564 133.418C336.856 133.197 336.098 133.186 335.384 133.387L334.083 133.732Z" fill="#87D303"/>
<path d="M329.254 163.203C329.052 161.712 329.194 160.195 329.671 158.767C330.096 157.5 330.862 156.373 331.883 155.511C332.939 154.648 334.229 154.119 335.587 153.992L339.51 153.538C340.766 153.385 342.039 153.597 343.177 154.147C344.333 154.697 345.334 155.527 346.087 156.562C346.869 157.627 347.353 158.88 347.492 160.194C347.646 161.441 347.482 162.708 347.015 163.874C346.563 165.018 345.826 166.027 344.875 166.807C343.882 167.61 342.675 168.104 341.403 168.227C340.662 168.375 339.893 168.291 339.201 167.986C338.749 167.738 338.41 167.325 338.255 166.833C338.094 166.318 337.983 165.788 337.923 165.252L336.967 156.997L335.815 157.13C335.179 157.178 334.563 157.374 334.016 157.702C333.47 158.03 333.007 158.481 332.665 159.019C331.941 160.214 331.662 161.626 331.88 163.006C331.936 163.775 332.154 164.524 332.52 165.204C332.781 165.649 333.082 166.069 333.417 166.461C333.666 166.711 333.831 167.032 333.89 167.379C333.922 167.624 333.861 167.873 333.719 168.077C333.581 168.281 333.401 168.454 333.191 168.584C333.014 168.7 332.815 168.777 332.606 168.808C332.376 168.797 332.15 168.739 331.943 168.638C331.736 168.536 331.551 168.394 331.401 168.219C330.84 167.672 330.389 167.021 330.074 166.303C329.632 165.322 329.355 164.275 329.254 163.203ZM339.062 156.754L339.867 163.699C339.877 164.161 340.011 164.613 340.254 165.007C340.391 165.121 340.554 165.201 340.728 165.24C340.903 165.279 341.084 165.275 341.257 165.23C341.99 165.15 342.69 164.876 343.283 164.438C343.885 163.997 344.364 163.41 344.673 162.731C344.999 162.012 345.115 161.217 345.01 160.435C344.929 159.693 344.661 158.984 344.232 158.373C343.802 157.763 343.224 157.272 342.552 156.945C341.883 156.624 341.135 156.504 340.399 156.6L339.062 156.754Z" fill="#87D303"/>
<path d="M330.452 179.07C330.445 178.675 330.575 178.289 330.822 177.979C330.911 177.851 331.029 177.745 331.167 177.671C331.305 177.596 331.458 177.555 331.614 177.55L347.332 177.801C347.492 177.802 347.649 177.844 347.787 177.923C347.926 178.003 348.042 178.116 348.123 178.254C348.327 178.584 348.425 178.968 348.405 179.355C348.412 179.724 348.302 180.086 348.089 180.388C347.999 180.518 347.879 180.622 347.738 180.693C347.598 180.764 347.441 180.798 347.284 180.792L345.518 180.764C346.064 181.074 346.559 181.465 346.987 181.924C347.455 182.424 347.835 183 348.111 183.627C348.409 184.304 348.553 185.038 348.531 185.778L348.511 187.059C348.507 187.223 348.466 187.385 348.392 187.532C348.317 187.679 348.211 187.808 348.08 187.908C347.797 188.147 347.436 188.271 347.066 188.256C346.699 188.257 346.346 188.122 346.074 187.876C345.947 187.772 345.844 187.64 345.775 187.49C345.705 187.341 345.669 187.178 345.671 187.013L345.691 185.732C345.7 184.914 345.478 184.109 345.05 183.411C344.591 182.648 343.943 182.017 343.168 181.578C342.264 181.075 341.243 180.818 340.208 180.832L331.564 180.694C331.406 180.683 331.253 180.633 331.117 180.551C330.982 180.469 330.869 180.355 330.786 180.22C330.549 179.885 330.431 179.48 330.452 179.07Z" fill="#87D303"/>
<path d="M327.657 209.313C327.732 208.971 327.905 208.658 328.153 208.411C328.272 208.289 328.421 208.202 328.585 208.158C328.749 208.114 328.922 208.115 329.085 208.161L353.93 213.806C354.101 213.835 354.26 213.915 354.386 214.035C354.512 214.154 354.6 214.309 354.638 214.478C354.732 214.847 354.735 215.234 354.646 215.604C354.566 215.977 354.396 216.324 354.151 216.617C354.043 216.753 353.897 216.855 353.731 216.908C353.565 216.961 353.387 216.964 353.22 216.916L330.078 211.658L327.777 221.767C327.751 221.924 327.679 222.069 327.572 222.186C327.465 222.302 327.327 222.386 327.173 222.426C326.839 222.516 326.487 222.523 326.15 222.446C325.812 222.37 325.498 222.212 325.235 221.986C325.113 221.884 325.022 221.749 324.975 221.597C324.927 221.445 324.925 221.282 324.968 221.129L327.657 209.313Z" fill="#87D303"/>
<path d="M320.82 232.518C321.259 231.284 322.126 230.247 323.264 229.596C323.895 229.279 324.591 229.111 325.297 229.105C326.004 229.099 326.702 229.254 327.339 229.56C327.902 229.736 328.425 230.023 328.876 230.403C329.328 230.783 329.699 231.25 329.968 231.775C330.428 232.874 330.557 234.083 330.339 235.254C330.092 236.78 329.678 238.275 329.105 239.711L328.452 241.408L329.187 241.69C329.887 241.959 330.629 242.1 331.379 242.105C332.13 242.117 332.87 241.917 333.514 241.529C334.239 241.051 334.781 240.34 335.049 239.513C335.327 238.857 335.497 238.161 335.554 237.451C335.579 237 335.553 236.548 335.475 236.104C335.401 235.825 335.407 235.531 335.492 235.256C335.558 235.085 335.671 234.935 335.817 234.825C335.964 234.715 336.138 234.648 336.321 234.632C336.695 234.562 337.08 234.592 337.437 234.72C337.805 234.862 338.041 235.251 338.145 235.889C338.249 236.626 338.245 237.375 338.135 238.111C338.026 238.943 337.82 239.759 337.52 240.542C337.058 241.952 336.189 243.194 335.022 244.112C334.046 244.823 332.878 245.224 331.671 245.263C330.445 245.297 329.224 245.082 328.083 244.633L319.024 241.152C318.878 241.092 318.749 240.999 318.646 240.88C318.543 240.761 318.47 240.619 318.433 240.466C318.328 240.082 318.357 239.673 318.517 239.308C318.642 238.959 318.883 238.663 319.201 238.471C319.331 238.382 319.48 238.326 319.636 238.306C319.793 238.286 319.951 238.304 320.099 238.357L321.515 238.901C321.028 237.973 320.675 236.98 320.467 235.953C320.246 234.799 320.368 233.604 320.82 232.518ZM322.804 234.349C322.538 235.058 322.468 235.827 322.603 236.573C322.724 237.337 322.995 238.069 323.402 238.727C323.715 239.296 324.208 239.744 324.803 240.004L326.643 240.711L327.113 239.49C327.477 238.554 327.778 237.595 328.015 236.619C328.235 235.82 328.253 234.979 328.067 234.172C327.956 233.806 327.755 233.473 327.484 233.204C327.212 232.935 326.878 232.737 326.511 232.629C326.15 232.453 325.752 232.363 325.35 232.367C324.948 232.37 324.552 232.466 324.193 232.647C323.545 233.032 323.053 233.633 322.804 234.344L322.804 234.349Z" fill="#87D303"/>
<path d="M310.417 254.944C311.059 253.784 312.006 252.821 313.157 252.162C314.279 251.512 315.546 251.152 316.843 251.115C318.103 251.064 319.353 251.365 320.451 251.985L329.006 256.816C329.14 256.903 329.251 257.021 329.329 257.16C329.407 257.299 329.451 257.455 329.456 257.614C329.504 258.01 329.42 258.41 329.216 258.753C329.03 259.101 328.732 259.377 328.37 259.535C328.23 259.61 328.075 259.65 327.916 259.653C327.758 259.656 327.601 259.621 327.459 259.552L318.904 254.721C318.249 254.351 317.507 254.163 316.754 254.177C315.983 254.184 315.225 254.375 314.542 254.734C313.847 255.092 313.275 255.649 312.898 256.333C312.506 257.005 312.322 257.777 312.368 258.553C312.412 259.32 312.644 260.063 313.044 260.719C313.427 261.368 313.974 261.905 314.631 262.277L323.221 267.127C323.357 267.212 323.469 267.33 323.545 267.471C323.622 267.611 323.661 267.769 323.658 267.93C323.686 268.319 323.594 268.708 323.397 269.045C323.216 269.405 322.921 269.696 322.558 269.872C322.42 269.943 322.268 269.979 322.113 269.977C321.959 269.976 321.807 269.937 321.671 269.863L313.083 265.014C311.973 264.394 311.06 263.473 310.448 262.358C309.82 261.233 309.482 259.969 309.464 258.68C309.435 257.371 309.765 256.079 310.417 254.944Z" fill="#87D303"/>
<path d="M301.152 270.039C301.388 269.714 301.73 269.482 302.118 269.382C302.267 269.335 302.425 269.323 302.579 269.347C302.734 269.372 302.88 269.432 303.007 269.522L315.353 279.244C315.479 279.341 315.579 279.47 315.641 279.617C315.703 279.764 315.726 279.925 315.707 280.083C315.667 280.474 315.508 280.844 315.253 281.143C315.036 281.436 314.732 281.653 314.384 281.761C314.234 281.809 314.075 281.819 313.921 281.79C313.766 281.761 313.622 281.693 313.5 281.593L312.28 280.632C312.624 281.495 312.759 282.428 312.673 283.353C312.572 284.477 312.126 285.542 311.396 286.403C310.67 287.336 309.682 288.033 308.559 288.404C307.379 288.797 306.118 288.888 304.894 288.667C303.67 288.446 302.521 287.921 301.553 287.14L293.883 281.1C293.742 280.997 293.633 280.856 293.569 280.693C293.505 280.53 293.489 280.353 293.522 280.181C293.579 279.801 293.737 279.443 293.978 279.144C294.207 278.856 294.508 278.632 294.851 278.496C295.01 278.422 295.187 278.395 295.361 278.418C295.535 278.442 295.699 278.514 295.833 278.628L303.497 284.663C304.088 285.129 304.794 285.426 305.541 285.524C306.301 285.634 307.076 285.564 307.805 285.32C308.537 285.081 309.181 284.629 309.654 284.022C310.079 283.477 310.354 282.831 310.452 282.147C310.566 281.42 310.49 280.676 310.233 279.987C309.926 279.206 309.404 278.527 308.727 278.03L301.057 271.99C300.939 271.885 300.847 271.753 300.79 271.606C300.732 271.458 300.711 271.299 300.727 271.142C300.741 270.737 300.891 270.349 301.152 270.039Z" fill="#87D303"/>
<path d="M281.722 291.414C282.762 290.344 284.066 289.565 285.502 289.156C286.701 288.846 287.966 288.91 289.127 289.34C290.337 289.805 291.422 290.542 292.301 291.494L294.895 294.215C295.8 295.136 296.484 296.249 296.898 297.472C297.28 298.651 297.286 299.92 296.914 301.103C296.437 302.512 295.599 303.772 294.483 304.757C293.783 305.447 292.978 306.021 292.098 306.457C291.442 306.792 290.728 307 289.994 307.068C289.76 307.105 289.521 307.092 289.293 307.027C289.066 306.963 288.855 306.85 288.675 306.696C288.52 306.523 288.405 306.318 288.338 306.096C288.254 305.848 288.224 305.586 288.25 305.326C288.271 305.076 288.385 304.843 288.568 304.672C288.796 304.484 289.079 304.375 289.374 304.361C289.817 304.299 290.252 304.185 290.669 304.023C291.312 303.743 291.893 303.34 292.379 302.835C292.87 302.437 293.273 301.942 293.563 301.381C293.854 300.82 294.026 300.206 294.068 299.575C294.026 298.361 293.504 297.213 292.616 296.384L290.023 293.663C289.237 292.738 288.116 292.162 286.905 292.062C286.267 292.076 285.639 292.222 285.06 292.489C284.48 292.756 283.962 293.139 283.538 293.615C282.992 294.089 282.55 294.672 282.241 295.325C282.064 295.746 281.93 296.183 281.842 296.631C281.807 296.936 281.673 297.222 281.46 297.444C281.272 297.633 281.026 297.752 280.761 297.781C280.507 297.808 280.251 297.776 280.012 297.688C279.786 297.61 279.582 297.48 279.415 297.309C279.272 297.117 279.172 296.896 279.121 296.661C279.07 296.427 279.069 296.184 279.119 295.949C279.218 295.192 279.465 294.462 279.844 293.799C280.338 292.909 280.972 292.104 281.722 291.414Z" fill="#87D303"/>
<path d="M270.598 301.366C270.915 301.12 271.308 300.993 271.71 301.006C271.866 301.003 272.021 301.036 272.162 301.102C272.303 301.169 272.427 301.268 272.523 301.391L287.938 323.026C288.032 323.155 288.092 323.306 288.11 323.464C288.128 323.623 288.105 323.784 288.043 323.931C287.894 324.295 287.638 324.605 287.309 324.82C286.992 325.061 286.611 325.204 286.214 325.231C286.053 325.248 285.89 325.221 285.743 325.154C285.596 325.087 285.469 324.982 285.375 324.849L278.175 314.744C278.266 315.657 278.147 316.578 277.828 317.438C277.447 318.466 276.749 319.345 275.834 319.95C274.875 320.641 273.731 321.032 272.549 321.073C271.306 321.12 270.071 320.853 268.958 320.298C267.845 319.742 266.89 318.916 266.18 317.895L260.516 309.945C260.41 309.807 260.345 309.641 260.329 309.466C260.314 309.292 260.348 309.117 260.428 308.962C260.59 308.613 260.841 308.314 261.157 308.095C261.458 307.882 261.81 307.752 262.177 307.718C262.35 307.691 262.528 307.715 262.689 307.786C262.849 307.858 262.986 307.973 263.083 308.119L268.741 316.061C269.179 316.674 269.777 317.156 270.469 317.455C271.17 317.77 271.934 317.92 272.703 317.893C273.467 317.871 274.208 317.62 274.828 317.172C275.389 316.768 275.834 316.225 276.12 315.597C276.432 314.931 276.567 314.196 276.512 313.462C276.438 312.629 276.129 311.833 275.621 311.167L269.958 303.217C269.873 303.083 269.822 302.931 269.808 302.773C269.795 302.616 269.819 302.457 269.878 302.311C270.005 301.924 270.258 301.591 270.598 301.366Z" fill="#87D303"/>
<path d="M242.129 325.87C242.406 325.742 242.717 325.703 243.018 325.76C243.166 325.787 243.304 325.852 243.42 325.948C243.535 326.044 243.624 326.168 243.677 326.309C244.479 328.108 245.352 329.975 246.294 331.91C247.237 333.845 248.182 335.776 249.13 337.704C250.079 339.634 250.952 341.495 251.75 343.285C251.854 343.485 251.912 343.705 251.919 343.93C251.927 344.154 251.884 344.378 251.794 344.584C251.604 344.983 251.272 345.296 250.863 345.463C250.466 345.648 250.016 345.683 249.596 345.562C249.379 345.496 249.181 345.381 249.015 345.226C248.85 345.071 248.722 344.881 248.642 344.669C247.844 342.878 247.041 340.987 246.232 338.994C245.424 337.001 244.619 335.006 243.818 333.01C243.017 331.014 242.215 329.115 241.412 327.315C241.343 327.175 241.314 327.02 241.328 326.865C241.342 326.71 241.398 326.562 241.49 326.437C241.647 326.193 241.868 325.997 242.129 325.87ZM239.3 319.617C239.54 319.502 239.803 319.439 240.069 319.433C240.336 319.428 240.601 319.479 240.846 319.584C241.33 319.776 241.719 320.153 241.926 320.631C242.037 320.866 242.099 321.121 242.109 321.381C242.12 321.64 242.078 321.9 241.986 322.143C241.896 322.392 241.755 322.619 241.571 322.81C241.387 323.001 241.165 323.152 240.92 323.252C240.687 323.357 240.435 323.414 240.18 323.419C239.924 323.424 239.67 323.376 239.434 323.279C239.188 323.189 238.964 323.049 238.774 322.869C238.585 322.689 238.434 322.471 238.332 322.231C238.225 321.994 238.166 321.739 238.159 321.479C238.152 321.22 238.198 320.962 238.293 320.72C238.375 320.476 238.506 320.252 238.68 320.062C238.853 319.872 239.064 319.721 239.3 319.617Z" fill="#87D303"/>
<path d="M198.753 331.248C200.225 331.017 201.73 331.114 203.16 331.532C204.397 331.894 205.506 332.596 206.362 333.558C207.198 334.527 207.724 335.725 207.871 336.997C207.931 337.217 207.94 337.448 207.899 337.672C207.858 337.897 207.768 338.109 207.634 338.294C207.324 338.574 206.929 338.742 206.513 338.771C206.138 338.828 205.756 338.795 205.397 338.673C205.229 338.611 205.082 338.504 204.972 338.362C204.862 338.221 204.795 338.052 204.777 337.874C204.66 337.073 204.35 336.313 203.873 335.66C203.402 335.027 202.751 334.552 202.005 334.295C201.114 334.003 200.166 333.932 199.242 334.086C198.571 334.136 197.918 334.321 197.321 334.63C196.724 334.939 196.196 335.366 195.769 335.885C195.372 336.501 195.1 337.19 194.971 337.911C194.841 338.633 194.856 339.373 195.014 340.089L197.265 356.72L202.156 356.059C202.317 356.033 202.481 356.051 202.632 356.11C202.783 356.168 202.915 356.266 203.016 356.393C203.253 356.671 203.402 357.013 203.444 357.376C203.487 357.707 203.442 358.045 203.312 358.353C203.249 358.509 203.143 358.644 203.007 358.743C202.871 358.841 202.71 358.9 202.543 358.912L195.919 359.807C195.569 359.859 195.212 359.807 194.892 359.659C194.738 359.589 194.605 359.48 194.508 359.342C194.41 359.204 194.351 359.042 194.338 358.874L191.854 340.515C191.551 338.866 191.699 337.166 192.282 335.594C192.79 334.356 193.677 333.309 194.815 332.603C196.017 331.878 197.359 331.416 198.753 331.248Z" fill="#87D303"/>
<path d="M174.768 332.685C176.071 332.7 177.343 333.077 178.443 333.774C179.551 334.459 180.477 335.402 181.14 336.523C181.801 337.617 182.138 338.876 182.113 340.153L182.051 343.983C182.038 345.255 181.669 346.498 180.985 347.571C180.299 348.662 179.348 349.564 178.222 350.193C177.08 350.844 175.782 351.172 174.467 351.141C173.156 351.13 171.873 350.768 170.751 350.091C169.646 349.436 168.719 348.519 168.052 347.421C167.379 346.315 167.04 345.038 167.077 343.744L167.138 339.911C167.16 338.641 167.538 337.403 168.23 336.338C168.927 335.231 169.884 334.31 171.018 333.655C172.154 332.989 173.452 332.653 174.768 332.685ZM174.723 335.526C173.944 335.504 173.176 335.715 172.518 336.133C171.86 336.55 171.312 337.118 170.918 337.789C170.517 338.445 170.299 339.196 170.284 339.964L170.223 343.794C170.21 344.546 170.4 345.287 170.772 345.941C171.146 346.613 171.675 347.188 172.314 347.616C172.962 348.057 173.726 348.295 174.509 348.3C175.289 348.323 176.057 348.111 176.714 347.693C177.362 347.283 177.902 346.726 178.291 346.067C178.682 345.423 178.894 344.686 178.905 343.933L178.966 340.1C178.978 339.334 178.791 338.578 178.424 337.906C178.061 337.22 177.533 336.635 176.887 336.203C176.248 335.768 175.494 335.532 174.72 335.526L174.723 335.526Z" fill="#87D303"/>
<path d="M154.293 354.404C154.548 354.432 154.795 354.511 155.02 354.635C155.245 354.759 155.443 354.926 155.603 355.127C155.762 355.307 155.881 355.519 155.953 355.749C156.024 355.979 156.045 356.221 156.016 356.46C155.986 356.697 155.905 356.926 155.778 357.128C155.651 357.331 155.481 357.504 155.28 357.634C154.859 357.928 154.34 358.05 153.832 357.974C153.326 357.921 152.861 357.672 152.537 357.28C152.381 357.101 152.264 356.891 152.196 356.663C152.127 356.435 152.109 356.196 152.141 355.96C152.173 355.723 152.253 355.496 152.377 355.291C152.5 355.087 152.665 354.911 152.861 354.773C153.063 354.618 153.293 354.506 153.539 354.443C153.785 354.379 154.042 354.366 154.293 354.404ZM157.247 331.708C157.647 331.744 158.022 331.918 158.307 332.2C158.424 332.304 158.516 332.433 158.574 332.578C158.632 332.723 158.656 332.879 158.643 333.035L156.631 348.615C156.613 348.773 156.553 348.925 156.459 349.053C156.365 349.182 156.238 349.284 156.093 349.35C155.736 349.516 155.337 349.57 154.949 349.504C154.553 349.466 154.176 349.312 153.866 349.063C153.737 348.965 153.635 348.835 153.573 348.686C153.51 348.536 153.489 348.373 153.51 348.212L155.522 332.631C155.551 332.476 155.617 332.329 155.714 332.204C155.812 332.079 155.937 331.979 156.081 331.912C156.435 331.715 156.846 331.643 157.247 331.708Z" fill="#87D303"/>
<path d="M145.193 329.763C145.586 329.846 145.937 330.063 146.188 330.376C146.292 330.493 146.367 330.632 146.408 330.783C146.449 330.933 146.454 331.092 146.423 331.245L142.588 346.48C142.551 346.635 142.474 346.778 142.365 346.895C142.256 347.012 142.119 347.099 141.966 347.146C141.592 347.27 141.19 347.276 140.812 347.165C140.456 347.088 140.134 346.899 139.893 346.625C139.787 346.509 139.713 346.367 139.677 346.214C139.64 346.062 139.643 345.902 139.685 345.75L140.064 344.244C139.416 344.911 138.619 345.415 137.739 345.716C136.671 346.082 135.515 346.111 134.431 345.797C133.281 345.516 132.241 344.899 131.443 344.026C130.601 343.111 130.004 341.998 129.705 340.791C129.406 339.584 129.416 338.321 129.734 337.119L132.117 327.654C132.153 327.483 132.238 327.326 132.36 327.201C132.483 327.076 132.638 326.988 132.809 326.949C133.179 326.845 133.571 326.843 133.942 326.941C134.3 327.032 134.627 327.215 134.891 327.472C135.024 327.587 135.121 327.738 135.171 327.906C135.22 328.074 135.221 328.253 135.173 328.422L132.792 337.88C132.608 338.609 132.624 339.375 132.84 340.096C133.051 340.835 133.432 341.513 133.952 342.078C134.469 342.649 135.146 343.052 135.894 343.235C136.565 343.4 137.268 343.386 137.932 343.196C138.643 343.003 139.292 342.63 139.816 342.113C140.405 341.514 140.811 340.761 140.989 339.94L143.372 330.475C143.419 330.324 143.502 330.186 143.613 330.073C143.724 329.96 143.861 329.876 144.011 329.826C144.387 329.673 144.803 329.651 145.193 329.763Z" fill="#87D303"/>
<path d="M106.23 315.327C107.411 315.93 108.404 316.846 109.1 317.974C109.786 319.075 110.187 320.328 110.265 321.622C110.356 322.879 110.095 324.137 109.51 325.253L104.951 333.952C104.868 334.089 104.754 334.203 104.617 334.286C104.481 334.369 104.326 334.417 104.167 334.427C103.773 334.488 103.369 334.416 103.02 334.224C102.666 334.049 102.381 333.76 102.211 333.404C102.132 333.267 102.086 333.113 102.078 332.955C102.07 332.796 102.1 332.639 102.165 332.494L106.724 323.796C107.073 323.13 107.238 322.383 107.199 321.632C107.167 320.862 106.952 320.11 106.572 319.44C106.191 318.757 105.616 318.203 104.92 317.848C104.235 317.479 103.457 317.32 102.682 317.391C101.917 317.459 101.181 317.715 100.538 318.135C99.9006 318.538 99.3807 319.102 99.0301 319.769L94.453 328.503C94.3727 328.642 94.2579 328.758 94.1197 328.839C93.9815 328.92 93.8246 328.964 93.6643 328.966C93.2755 329.006 92.8838 328.927 92.5405 328.74C92.1743 328.571 91.8742 328.286 91.6865 327.929C91.6113 327.794 91.5702 327.643 91.5667 327.488C91.5633 327.334 91.5975 327.181 91.6666 327.043L96.2427 318.311C96.8278 317.182 97.7192 316.241 98.8149 315.595C99.9207 314.931 101.174 314.553 102.462 314.494C103.771 314.423 105.073 314.711 106.23 315.327Z" fill="#87D303"/>
<path d="M88.051 304.119C88.9441 304.74 89.7334 305.497 90.3895 306.364C90.8979 307.017 91.2807 307.759 91.5185 308.552C91.6132 308.798 91.6525 309.061 91.6336 309.323C91.6147 309.586 91.5381 309.841 91.4091 310.07C91.2813 310.241 91.1187 310.383 90.9319 310.487C90.7316 310.604 90.5099 310.68 90.2799 310.71C90.0754 310.747 89.8649 310.701 89.6937 310.584C89.4137 310.348 89.2243 310.022 89.1577 309.662C88.9986 309.117 88.7743 308.594 88.4898 308.103C88.0133 307.353 87.3807 306.713 86.6349 306.229C85.8861 305.561 84.9206 305.187 83.9171 305.176C83.6022 305.201 83.2964 305.294 83.0202 305.447C82.7439 305.601 82.5036 305.811 82.3151 306.064C82.1085 306.318 81.9576 306.612 81.8721 306.928C81.7866 307.243 81.7684 307.573 81.8189 307.896C81.957 308.555 82.2372 309.175 82.6401 309.715C83.0744 310.322 83.546 310.948 84.0549 311.591C84.5552 312.216 85 312.884 85.384 313.587C85.7544 314.251 85.9499 314.998 85.952 315.758C85.9079 316.642 85.5857 317.489 85.0314 318.178C84.5237 318.871 83.8583 319.432 83.0902 319.817C82.2281 320.245 81.2602 320.413 80.3041 320.301C79.0582 320.126 77.8816 319.621 76.8954 318.84C76.1908 318.339 75.5461 317.758 74.974 317.109C74.4901 316.581 74.0899 315.982 73.7872 315.333C73.5457 314.777 73.5314 314.351 73.7442 314.055C73.8775 313.896 74.0387 313.762 74.2202 313.661C74.4461 313.518 74.6958 313.418 74.9573 313.364C75.078 313.336 75.2034 313.334 75.3247 313.359C75.446 313.385 75.5605 313.436 75.6602 313.509C75.8952 313.709 76.0825 313.958 76.2086 314.24C76.4331 314.659 76.6877 315.062 76.9704 315.446C77.3536 315.951 77.8154 316.391 78.3382 316.75C78.8864 317.184 79.5367 317.47 80.2269 317.581C80.731 317.653 81.2453 317.588 81.7151 317.392C82.096 317.23 82.4272 316.97 82.675 316.638C82.8527 316.418 82.975 316.158 83.0317 315.88C83.0884 315.603 83.078 315.315 83.0012 315.043C82.8033 314.424 82.4933 313.847 82.0867 313.34C81.6348 312.748 81.1537 312.132 80.6435 311.491C80.1369 310.856 79.7027 310.167 79.3489 309.436C78.9979 308.719 78.8335 307.925 78.8708 307.127C78.9614 306.174 79.3278 305.268 79.9252 304.52C80.3129 303.935 80.8312 303.447 81.4392 303.096C82.0472 302.744 82.7285 302.538 83.4295 302.494C85.113 302.478 86.7489 303.053 88.051 304.119Z" fill="#87D303"/>
<path d="M78.2151 292.403C78.4122 292.583 78.5541 292.815 78.6243 293.072C78.6677 293.198 78.676 293.333 78.6483 293.463C78.6207 293.593 78.5581 293.712 78.4673 293.809C78.3723 293.92 78.2553 294.01 78.1237 294.073L76.2212 295.031C76.389 295.383 76.4514 295.775 76.4006 296.162C76.3538 296.551 76.1878 296.916 75.9254 297.207C75.7563 297.405 75.5489 297.567 75.3155 297.684C75.0822 297.8 74.8277 297.868 74.5675 297.883C74.3108 297.906 74.0524 297.875 73.8084 297.792C73.5644 297.709 73.3402 297.577 73.1501 297.403C72.7633 297.065 72.5217 296.591 72.4754 296.079C72.4466 295.809 72.4773 295.537 72.5651 295.28C72.6529 295.024 72.7959 294.79 72.9838 294.594C73.0563 294.518 73.1344 294.447 73.2174 294.382C73.4025 294.244 73.5979 294.121 73.802 294.013C74.0826 293.857 74.4978 293.639 75.0474 293.359C75.5971 293.079 76.3337 292.709 77.2573 292.25C77.4173 292.164 77.6032 292.139 77.7803 292.18C77.9416 292.217 78.0911 292.294 78.2151 292.403Z" fill="#87D303"/>
<path d="M54.7783 271.718C55.6299 272.818 56.2414 274.085 56.5733 275.435C56.8872 276.748 56.7776 278.125 56.2603 279.371C55.5628 280.898 54.463 282.205 53.0786 283.155L43.9827 290.039C42.6915 291.117 41.1269 291.816 39.4625 292.058C38.1166 292.207 36.7577 291.934 35.5743 291.276C34.3561 290.585 33.2964 289.646 32.4636 288.521C31.5232 287.346 30.8609 285.975 30.5262 284.508C30.2539 283.291 30.3186 282.023 30.7132 280.84C31.1032 279.72 31.8227 278.743 32.7774 278.037C32.9571 277.861 33.1703 277.722 33.4043 277.629C33.6384 277.536 33.8887 277.49 34.1406 277.495C34.5524 277.615 34.9068 277.879 35.1385 278.24C35.4083 278.55 35.571 278.939 35.6028 279.348C35.6048 279.509 35.5699 279.668 35.501 279.813C35.4321 279.958 35.3309 280.085 35.2052 280.186C34.8712 280.47 34.567 280.788 34.2972 281.134C33.9669 281.555 33.7194 282.035 33.5679 282.548C33.3972 283.155 33.3852 283.796 33.5329 284.409C33.7538 285.259 34.1579 286.052 34.7169 286.73C35.092 287.3 35.5791 287.788 36.1485 288.164C36.7178 288.54 37.3577 288.796 38.0293 288.918C39.5067 288.995 40.9545 288.484 42.0553 287.496L51.1513 280.612C51.7739 280.22 52.3119 279.707 52.7336 279.104C53.1552 278.501 53.4521 277.82 53.6067 277.1C53.6602 276.408 53.5753 275.713 53.3569 275.054C53.1385 274.395 52.791 273.786 52.3347 273.262C51.8445 272.553 51.2037 271.961 50.458 271.528C49.9246 271.234 49.3221 271.09 48.7136 271.108C48.1747 271.137 47.6456 271.264 47.1523 271.482C46.7052 271.679 46.2684 271.899 45.8437 272.14C45.7066 272.238 45.5482 272.302 45.3815 272.328C45.2148 272.353 45.0445 272.339 44.8843 272.286C44.5242 272.135 44.2158 271.884 43.9968 271.561C43.7048 271.235 43.5441 270.813 43.5459 270.376C43.6793 269.882 44.0033 269.461 44.4468 269.206C45.4012 268.468 46.5534 268.032 47.7569 267.951C49.0255 267.877 50.2897 268.156 51.41 268.755C52.7432 269.475 53.895 270.488 54.7783 271.718Z" fill="#87D303"/>
<path d="M43.7404 254.8C44.3962 255.934 44.624 257.265 44.3825 258.553C44.2149 259.238 43.8923 259.877 43.4393 260.418C42.9862 260.96 42.415 261.39 41.7694 261.676C41.27 261.991 40.713 262.203 40.1309 262.299C39.5488 262.396 38.9531 262.377 38.3787 262.241C37.2435 261.879 36.2387 261.194 35.4877 260.269C34.4852 259.092 33.615 257.809 32.8928 256.442L32.023 254.846L31.331 255.222C30.673 255.58 30.0849 256.054 29.5948 256.62C29.099 257.185 28.7717 257.876 28.6502 258.617C28.5445 259.48 28.7352 260.352 29.191 261.092C29.5109 261.728 29.9309 262.309 30.4351 262.812C30.762 263.124 31.1236 263.396 31.5126 263.625C31.7727 263.75 31.9926 263.945 32.1473 264.188C32.2351 264.349 32.2759 264.531 32.2649 264.714C32.2539 264.897 32.1917 265.073 32.0852 265.222C31.897 265.552 31.6241 265.825 31.2949 266.014C30.9486 266.203 30.4989 266.13 29.9457 265.795C29.3169 265.396 28.7491 264.909 28.26 264.348C27.6966 263.726 27.2088 263.041 26.8066 262.305C26.0322 261.04 25.6492 259.574 25.7057 258.092C25.7967 256.888 26.2476 255.74 26.9999 254.796C27.7691 253.842 28.7233 253.052 29.8052 252.476L38.3267 247.84C38.4666 247.767 38.6216 247.729 38.779 247.729C38.9365 247.728 39.0918 247.764 39.2325 247.835C39.5933 248.004 39.8852 248.291 40.0598 248.649C40.2454 248.97 40.3143 249.345 40.2549 249.711C40.2379 249.868 40.1842 250.018 40.0981 250.15C40.0119 250.281 39.8958 250.391 39.7592 250.469L38.4278 251.193C39.4503 251.424 40.4348 251.799 41.3519 252.306C42.3752 252.886 43.2057 253.753 43.7404 254.8ZM41.0598 255.124C40.6922 254.461 40.1518 253.91 39.4962 253.529C38.8357 253.126 38.102 252.858 37.3372 252.741C36.7011 252.611 36.04 252.695 35.4565 252.98L33.7258 253.921L34.3514 255.07C34.829 255.953 35.3645 256.804 35.9546 257.616C36.4202 258.302 37.0492 258.86 37.7848 259.242C38.1356 259.394 38.5186 259.457 38.8997 259.425C39.2808 259.393 39.648 259.267 39.9683 259.058C40.3363 258.897 40.6621 258.653 40.9202 258.345C41.1783 258.037 41.3617 257.673 41.4561 257.283C41.5827 256.54 41.4437 255.777 41.0635 255.126L41.0598 255.124Z" fill="#87D303"/>
<path d="M35.1627 237.746C35.3186 238.11 35.3429 238.516 35.2314 238.896C35.1968 239.048 35.1271 239.19 35.0278 239.311C34.9285 239.432 34.8023 239.528 34.6594 239.591L20.0061 245.274C19.8579 245.333 19.6968 245.353 19.5385 245.332C19.3802 245.311 19.2301 245.249 19.1029 245.152C18.7899 244.923 18.5541 244.605 18.4269 244.238C18.2808 243.899 18.247 243.522 18.3302 243.163C18.3642 243.009 18.4363 242.867 18.54 242.748C18.6437 242.63 18.7755 242.54 18.9233 242.486L20.5694 241.847C19.9474 241.765 19.3414 241.589 18.7723 241.325C18.1499 241.038 17.5808 240.648 17.0891 240.171C16.5579 239.656 16.148 239.03 15.889 238.337L15.4253 237.143C15.3667 236.989 15.3434 236.824 15.357 236.66C15.3706 236.495 15.4208 236.336 15.504 236.194C15.6761 235.867 15.9645 235.616 16.3125 235.49C16.6514 235.351 17.03 235.344 17.3742 235.469C17.5317 235.518 17.6761 235.601 17.7971 235.713C17.918 235.825 18.0123 235.963 18.073 236.116L18.5368 237.31C18.8373 238.072 19.3464 238.734 20.0058 239.219C20.7186 239.753 21.5566 240.093 22.4393 240.209C23.4668 240.334 24.5091 240.188 25.4625 239.785L33.5211 236.66C33.6718 236.611 33.8319 236.599 33.9883 236.625C34.1446 236.65 34.2926 236.713 34.4201 236.807C34.766 237.028 35.0275 237.359 35.1627 237.746Z" fill="#87D303"/>
<path d="M28.2197 215.077C28.6059 216.532 28.6529 218.056 28.357 219.532C28.092 220.843 27.4721 222.056 26.565 223.039C25.6238 224.026 24.4093 224.711 23.0766 225.005L19.239 225.942C18.0119 226.249 16.7221 226.197 15.5239 225.792C14.3078 225.389 13.2117 224.689 12.3354 223.755C11.4271 222.795 10.7904 221.612 10.4902 220.325C10.1815 219.106 10.1872 217.828 10.5067 216.612C10.8132 215.421 11.4191 214.328 12.2667 213.436C13.1522 212.516 14.2894 211.876 15.5364 211.596C16.2539 211.357 17.0279 211.345 17.7524 211.562C18.2319 211.753 18.6194 212.121 18.8343 212.589C19.0581 213.081 19.2341 213.593 19.3601 214.118L21.3346 222.194L22.4616 221.918C23.0868 221.792 23.6737 221.521 24.1757 221.127C24.6776 220.734 25.0808 220.229 25.353 219.653C25.9242 218.377 26.0252 216.941 25.6382 215.598C25.4864 214.841 25.1768 214.125 24.7297 213.496C24.4149 213.087 24.0645 212.706 23.6826 212.359C23.4053 212.141 23.2017 211.844 23.0994 211.507C23.0373 211.267 23.067 211.012 23.1826 210.793C23.2943 210.572 23.4517 210.378 23.6442 210.223C23.8047 210.086 23.9931 209.986 24.1964 209.928C24.4266 209.911 24.6578 209.941 24.8761 210.016C25.0944 210.09 25.2952 210.209 25.4663 210.363C26.0912 210.838 26.6189 211.428 27.0208 212.101C27.5813 213.02 27.9863 214.026 28.2197 215.077ZM19.2849 222.694L17.624 215.901C17.5563 215.443 17.3674 215.011 17.0768 214.65C16.9264 214.554 16.7551 214.494 16.5771 214.478C16.3992 214.461 16.2198 214.486 16.0539 214.553C15.3355 214.723 14.6754 215.082 14.1408 215.59C13.5975 216.102 13.1952 216.745 12.9725 217.457C12.7388 218.211 12.722 219.015 12.9238 219.778C13.096 220.504 13.4498 221.175 13.9522 221.728C14.4546 222.28 15.0891 222.696 15.7964 222.937C16.5005 223.173 17.2578 223.199 17.9767 223.013L19.2849 222.694Z" fill="#87D303"/>
<path d="M24.7214 193.332C24.8939 194.827 24.7208 196.342 24.2153 197.76C23.7641 199.019 22.9759 200.13 21.9365 200.972C20.8629 201.814 19.5623 202.317 18.2012 202.416L14.2686 202.791C13.0099 202.919 11.741 202.682 10.6137 202.108C9.46829 201.535 8.48452 200.684 7.75198 199.634C6.99154 198.553 6.53202 197.29 6.42042 195.974C6.29064 194.723 6.48034 193.46 6.97177 192.302C7.44679 191.167 8.20382 190.173 9.17114 189.413C10.1801 188.629 11.3976 188.159 12.6719 188.062C13.4164 187.929 14.184 188.028 14.8697 188.347C15.3167 188.605 15.6472 189.025 15.7923 189.519C15.9429 190.038 16.0434 190.57 16.0923 191.108L16.8824 199.383L18.0374 199.273C18.6743 199.238 19.2941 199.054 19.8476 198.737C20.401 198.42 20.8727 197.978 21.2252 197.447C21.9742 196.267 22.2811 194.86 22.0917 193.476C22.0505 192.705 21.8474 191.952 21.4957 191.265C21.2431 190.815 20.9512 190.388 20.6233 189.989C20.3802 189.734 20.2216 189.41 20.169 189.062C20.1422 188.815 20.2082 188.568 20.3542 188.367C20.4965 188.165 20.6802 187.996 20.893 187.87C21.0716 187.758 21.2726 187.685 21.482 187.658C21.7122 187.674 21.9368 187.737 22.142 187.842C22.3473 187.947 22.5289 188.093 22.676 188.271C23.226 188.83 23.6632 189.49 23.9638 190.214C24.386 191.205 24.6419 192.258 24.7214 193.332ZM14.7821 199.584L14.1174 192.622C14.1165 192.159 13.9918 191.704 13.7562 191.306C13.6212 191.189 13.4602 191.105 13.2866 191.063C13.1129 191.021 12.9317 191.021 12.7579 191.062C12.0225 191.128 11.3176 191.387 10.7152 191.814C10.1039 192.242 9.61313 192.82 9.29015 193.493C8.95027 194.205 8.81767 194.999 8.90748 195.783C8.97314 196.526 9.22661 197.241 9.64415 197.86C10.0617 198.479 10.6296 198.982 11.2948 199.322C11.9576 199.657 12.7033 199.792 13.4414 199.711L14.7821 199.584Z" fill="#87D303"/>
<path d="M23.8326 177.404C23.8332 177.799 23.696 178.182 23.4445 178.488C23.3529 178.614 23.233 178.718 23.0943 178.79C22.9556 178.862 22.802 178.901 22.6456 178.903L6.9433 178.385C6.78369 178.381 6.62767 178.337 6.49048 178.255C6.35329 178.173 6.23961 178.058 6.16054 177.919C5.96268 177.586 5.87102 177.2 5.89778 176.814C5.89661 176.445 6.01336 176.085 6.23102 175.787C6.32255 175.659 6.44483 175.556 6.58658 175.488C6.72833 175.42 6.88498 175.389 7.04206 175.397L8.80603 175.455C8.26633 175.136 7.7783 174.737 7.35864 174.271C6.89909 173.763 6.52904 173.181 6.2642 172.55C5.97787 171.868 5.84681 171.132 5.88053 170.394L5.92284 169.114C5.92946 168.949 5.97285 168.788 6.04982 168.643C6.1268 168.497 6.23541 168.371 6.36769 168.272C6.65436 168.039 7.01807 167.921 7.38727 167.942C7.75339 167.947 8.10447 168.088 8.37184 168.338C8.49735 168.445 8.59736 168.579 8.66455 168.729C8.73174 168.879 8.7644 169.043 8.76014 169.208L8.71784 170.487C8.6952 171.305 8.90362 172.113 9.31921 172.818C9.7653 173.588 10.402 174.229 11.1682 174.682C12.0638 175.199 13.0794 175.473 14.114 175.477L22.7495 175.762C22.9071 175.776 23.0591 175.828 23.1929 175.912C23.3266 175.997 23.4382 176.112 23.5185 176.249C23.7498 176.588 23.8603 176.994 23.8326 177.404Z" fill="#87D303"/>
<path d="M27.2308 147.287C27.1484 147.627 26.9695 147.937 26.7155 148.178C26.5948 148.297 26.444 148.381 26.2791 148.422C26.1143 148.463 25.9415 148.458 25.7791 148.408L1.06491 142.247C0.894227 142.214 0.737171 142.131 0.613621 142.009C0.490072 141.887 0.405584 141.731 0.37085 141.56C0.284362 141.189 0.289821 140.803 0.386751 140.435C0.474399 140.064 0.651253 139.72 0.901968 139.433C1.01285 139.299 1.16118 139.201 1.32809 139.151C1.495 139.101 1.67297 139.102 1.83938 139.153L24.8601 144.892L27.3709 134.836C27.401 134.68 27.4752 134.537 27.5847 134.422C27.6943 134.308 27.8344 134.227 27.9886 134.19C28.3247 134.107 28.6761 134.107 29.012 134.191C29.3479 134.275 29.6583 134.439 29.9161 134.67C30.0368 134.775 30.1245 134.912 30.1688 135.065C30.213 135.218 30.2119 135.38 30.1655 135.533L27.2308 147.287Z" fill="#87D303"/>
<path d="M34.5546 124.208C34.0901 125.434 33.2018 126.453 32.0505 127.08C31.4128 127.384 30.7137 127.538 30.0071 127.53C29.3005 127.522 28.6051 127.352 27.9746 127.033C27.4148 126.845 26.8981 126.548 26.4546 126.158C26.011 125.769 25.6496 125.295 25.3912 124.764C24.9537 123.656 24.8495 122.444 25.0912 121.278C25.3698 119.757 25.8145 118.271 26.4175 116.846L27.1053 115.163L26.3755 114.865C25.6813 114.582 24.9418 114.426 24.1924 114.405C23.4412 114.378 22.6975 114.563 22.046 114.937C21.3104 115.401 20.7543 116.101 20.4691 116.922C20.1779 117.572 19.9931 118.265 19.9217 118.974C19.8873 119.424 19.9045 119.877 19.9731 120.323C20.0412 120.603 20.0292 120.897 19.9384 121.17C19.8692 121.34 19.7536 121.487 19.6048 121.594C19.456 121.702 19.2799 121.765 19.0968 121.777C18.7222 121.839 18.3375 121.801 17.9826 121.666C17.6174 121.517 17.3895 121.122 17.2989 120.482C17.2102 119.743 17.2291 118.995 17.355 118.261C17.4802 117.431 17.7033 116.62 18.0194 115.843C18.5108 114.442 19.4052 113.218 20.5905 112.324C21.5813 111.633 22.7571 111.256 23.9653 111.241C25.1922 111.233 26.4081 111.473 27.5401 111.946L36.5274 115.612C36.6719 115.674 36.7995 115.77 36.8998 115.892C37 116.013 37.0701 116.156 37.1043 116.31C37.2016 116.696 37.1636 117.104 36.9965 117.466C36.8648 117.813 36.6173 118.104 36.2958 118.289C36.1638 118.375 36.0133 118.428 35.8567 118.445C35.7001 118.462 35.5417 118.441 35.3947 118.385L33.9905 117.812C34.4583 118.75 34.7906 119.749 34.9773 120.781C35.1753 121.94 35.0283 123.132 34.5546 124.208ZM32.6075 122.337C32.8889 121.633 32.9743 120.866 32.8547 120.117C32.7493 119.351 32.4928 118.613 32.1002 117.947C31.7982 117.372 31.3147 116.913 30.7248 116.641L28.8994 115.897L28.4047 117.108C28.0218 118.037 27.7008 118.99 27.444 119.961C27.2072 120.755 27.172 121.595 27.3415 122.407C27.4453 122.775 27.6389 123.111 27.9048 123.386C28.1708 123.661 28.5009 123.865 28.8655 123.981C29.2235 124.164 29.619 124.262 30.0211 124.267C30.4232 124.272 30.8211 124.184 31.1836 124.01C31.8397 123.639 32.3439 123.048 32.6078 122.342L32.6075 122.337Z" fill="#87D303"/>
<path d="M45.4075 101.997C44.7428 103.144 43.7756 104.087 42.6114 104.723C41.4762 105.35 40.2022 105.684 38.905 105.694C37.644 105.72 36.401 105.393 35.3159 104.751L26.8615 99.7463C26.7293 99.6568 26.6207 99.5366 26.5452 99.396C26.4696 99.2554 26.4292 99.0987 26.4275 98.9391C26.3877 98.5425 26.4801 98.1438 26.6904 97.8051C26.8839 97.461 27.1876 97.1919 27.5526 97.041C27.6938 96.9689 27.85 96.9315 28.0085 96.9318C28.167 96.9322 28.3232 96.9702 28.464 97.0429L36.9184 102.047C37.5655 102.431 38.3037 102.634 39.0561 102.635C39.8272 102.643 40.5893 102.468 41.2792 102.123C41.9812 101.779 42.5649 101.234 42.9562 100.558C43.3612 99.894 43.561 99.1256 43.5306 98.3488C43.5022 97.5818 43.2855 96.8336 42.8996 96.1701C42.5296 95.5132 41.9934 94.9649 41.3447 94.58L32.8559 89.5554C32.7216 89.4681 32.6122 89.3474 32.5384 89.2053C32.4645 89.0631 32.4288 88.9042 32.4348 88.7442C32.4154 88.3541 32.5146 87.9673 32.7192 87.6346C32.9075 87.278 33.2082 86.9934 33.5748 86.8248C33.7136 86.7568 33.8668 86.7237 34.0213 86.7283C34.1757 86.7329 34.3268 86.7751 34.4612 86.8513L42.9482 91.8749C44.0457 92.5178 44.9398 93.4566 45.5281 94.5838C46.133 95.722 46.4452 96.9925 46.4368 98.2812C46.4393 99.5905 46.0834 100.876 45.4075 101.997Z" fill="#87D303"/>
<path d="M54.9819 87.1008C54.7394 87.4206 54.3929 87.646 54.0021 87.7381C53.8522 87.7824 53.6941 87.7911 53.5402 87.7636C53.3864 87.7362 53.2411 87.6732 53.1158 87.5798L40.9658 77.606C40.8411 77.5061 40.7445 77.3757 40.6853 77.2273C40.6261 77.079 40.6065 76.9179 40.6282 76.7597C40.6766 76.3693 40.8427 76.0029 41.1045 75.7091C41.3266 75.42 41.6354 75.2095 41.9858 75.1084C42.1363 75.063 42.2959 75.0563 42.4498 75.0888C42.6036 75.1213 42.7468 75.1919 42.8662 75.2942L44.0676 76.2805C43.7409 75.4098 43.6248 74.4743 43.7289 73.5503C43.8533 72.4286 44.321 71.3725 45.0681 70.5262C45.8138 69.6076 46.8158 68.9311 47.947 68.5827C49.1352 68.2131 50.3974 68.1481 51.6173 68.3937C52.8372 68.6394 53.9757 69.1878 54.9279 69.9885L62.4766 76.1851C62.6157 76.2912 62.7218 76.4346 62.7824 76.5986C62.8431 76.7627 62.8558 76.9406 62.8192 77.1116C62.7543 77.4905 62.5897 77.8453 62.3421 78.1396C62.1069 78.4235 61.8014 78.6408 61.4559 78.7699C61.2952 78.8406 61.1175 78.864 60.9439 78.8372C60.7703 78.8104 60.608 78.7345 60.4761 78.6186L52.9336 72.427C52.3518 71.9491 51.6517 71.637 50.9071 71.5237C50.1488 71.3989 49.3717 71.4532 48.6381 71.6822C47.9009 71.9059 47.2476 72.345 46.7622 72.9429C46.3263 73.4792 46.0382 74.12 45.9264 74.8018C45.7979 75.5266 45.8584 76.2722 46.1019 76.9669C46.3928 77.7545 46.9009 78.4436 47.5674 78.9546L55.1161 85.1512C55.2326 85.2586 55.3217 85.3922 55.3763 85.5409C55.4308 85.6895 55.4491 85.849 55.4297 86.0062C55.4074 86.4109 55.2497 86.7964 54.9819 87.1008Z" fill="#87D303"/>
<path d="M74.8316 66.1226C73.7695 67.1719 72.4505 67.9242 71.0062 68.3043C69.8009 68.5899 68.5369 68.4998 67.3843 68.0462C66.1848 67.5567 65.1141 66.7979 64.2552 65.8285L61.7166 63.055C60.8303 62.1157 60.1682 60.9883 59.7798 59.7571C59.4213 58.5703 59.4414 57.3015 59.8372 56.1267C60.3427 54.727 61.2066 53.4842 62.3426 52.5222C63.0558 51.8465 63.8724 51.289 64.7616 50.8707C65.4245 50.5485 66.1428 50.3556 66.878 50.3023C67.1124 50.2695 67.3512 50.2881 67.5777 50.3569C67.8042 50.4258 68.0129 50.5431 68.1893 50.7009C68.3406 50.8772 68.4514 51.0844 68.5139 51.3081C68.5932 51.557 68.6181 51.8199 68.5868 52.0792C68.5601 52.3287 68.4419 52.5594 68.255 52.727C68.0233 52.9103 67.7385 53.0138 67.4431 53.0218C66.9984 53.0747 66.5615 53.1793 66.1411 53.3336C65.4926 53.5998 64.9032 53.9916 64.4068 54.4864C63.9083 54.8747 63.4953 55.3615 63.1934 55.9164C62.8915 56.4712 62.7072 57.0823 62.652 57.7115C62.669 58.9264 63.1677 60.0849 64.0387 60.9327L66.5766 63.7055C67.344 64.6465 68.4535 65.2451 69.6619 65.3701C70.3 65.3685 70.931 65.2358 71.5157 64.9804C72.1003 64.7249 72.6262 64.3521 73.0607 63.885C73.6161 63.4218 74.0693 62.8485 74.3914 62.2012C74.5777 61.7847 74.7204 61.35 74.8172 60.9041C74.8587 60.5994 74.9986 60.3165 75.2155 60.0983C75.4073 59.9134 75.6565 59.7995 75.922 59.7755C76.1758 59.754 76.4312 59.791 76.6685 59.8836C76.8927 59.9664 77.0944 60.1003 77.2577 60.2747C77.3968 60.4704 77.4926 60.6934 77.539 60.9289C77.5853 61.1644 77.5811 61.4071 77.5265 61.6409C77.4115 62.3957 77.1503 63.1209 76.7576 63.7759C76.2453 64.6561 75.5951 65.4484 74.8316 66.1226Z" fill="#87D303"/>
<path d="M86.1509 56.3778C85.8285 56.6164 85.4329 56.7353 85.0322 56.714C84.8761 56.7144 84.7219 56.6784 84.5821 56.6089C84.4423 56.5394 84.3207 56.4382 84.2268 56.3135L69.2635 34.376C69.172 34.2452 69.116 34.093 69.1009 33.9342C69.0859 33.7754 69.1123 33.6153 69.1776 33.4697C69.3336 33.1089 69.5959 32.8041 69.9295 32.5958C70.2509 32.3613 70.6341 32.2261 71.0316 32.207C71.193 32.1939 71.3551 32.2239 71.5011 32.294C71.6471 32.3641 71.7718 32.4717 71.8624 32.6058L78.8515 42.8524C78.7795 41.9383 78.9169 41.0198 79.2535 40.1668C79.6553 39.1479 80.3711 38.2832 81.2973 37.6978C82.2705 37.0261 83.4215 36.6585 84.6042 36.6417C85.8475 36.6206 87.0762 36.9125 88.1771 37.4903C89.2779 38.0682 90.2156 38.9136 90.9038 39.9486L96.4017 48.009C96.5053 48.1498 96.5668 48.3171 96.5788 48.4914C96.5909 48.6658 96.5531 48.8399 96.4699 48.9936C96.3013 49.3388 96.0437 49.6329 95.7236 49.8457C95.4183 50.0519 95.0642 50.1745 94.6967 50.2014C94.5226 50.2242 94.3457 50.1967 94.1867 50.1223C94.0278 50.0479 93.8934 49.9296 93.7995 49.7814L88.3072 41.7292C87.8818 41.1073 87.2944 40.6133 86.6086 40.3005C85.9143 39.9713 85.1536 39.8058 84.3851 39.8167C83.6205 39.8236 82.8755 40.0596 82.2465 40.4943C81.6778 40.8862 81.2214 41.4199 80.9226 42.0424C80.5974 42.7016 80.4474 43.4334 80.487 44.1673C80.5446 45.0022 80.837 45.8038 81.3306 46.4798L86.8285 54.5403C86.91 54.6759 86.958 54.829 86.9685 54.9869C86.979 55.1448 86.9518 55.3029 86.889 55.4481C86.7547 55.8322 86.4947 56.1598 86.1509 56.3778Z" fill="#87D303"/>
<path d="M115.112 32.4708C114.832 32.5931 114.521 32.6251 114.221 32.5625C114.074 32.5324 113.937 32.4648 113.823 32.3663C113.71 32.2678 113.624 32.1418 113.573 32.0003C112.808 30.1849 111.974 28.3005 111.071 26.3469C110.168 24.3933 109.263 22.4431 108.354 20.4962C107.445 18.5467 106.61 16.6689 105.849 14.8627C105.749 14.661 105.696 14.4397 105.693 14.2149C105.69 13.9901 105.737 13.7675 105.831 13.5633C106.03 13.1686 106.368 12.8619 106.781 12.7029C107.181 12.5263 107.631 12.5004 108.049 12.63C108.264 12.7006 108.461 12.8195 108.623 12.9778C108.785 13.136 108.909 13.3293 108.985 13.5428C109.746 15.349 110.51 17.2566 111.278 19.2658C112.045 21.2749 112.809 23.2855 113.569 25.2978C114.33 27.3097 115.093 29.224 115.858 31.0406C115.924 31.1813 115.95 31.3375 115.933 31.4919C115.916 31.6464 115.857 31.7932 115.762 31.9162C115.601 32.1574 115.376 32.3493 115.112 32.4708ZM117.813 38.7796C117.57 38.8902 117.307 38.9476 117.04 38.9479C116.773 38.9482 116.509 38.8914 116.267 38.7813C115.786 38.5793 115.405 38.1949 115.208 37.7126C115.102 37.4752 115.045 37.219 115.04 36.9591C115.035 36.6993 115.082 36.4411 115.178 36.1998C115.274 35.9526 115.42 35.7282 115.608 35.541C115.795 35.3538 116.02 35.208 116.267 35.113C116.502 35.0121 116.755 34.9603 117.011 34.9608C117.266 34.9613 117.519 35.0141 117.754 35.1159C117.997 35.2112 118.219 35.3553 118.405 35.5394C118.59 35.7236 118.736 35.9438 118.834 36.1865C118.937 36.4249 118.99 36.6816 118.992 36.9412C118.993 37.2008 118.942 37.458 118.842 37.6975C118.755 37.9396 118.619 38.161 118.442 38.3474C118.265 38.5337 118.05 38.681 117.813 38.7796Z" fill="#87D303"/>
</svg>
