<svg width="250" height="46" viewBox="0 0 250 46" fill="none" xmlns="http://www.w3.org/2000/svg">
<g clip-path="url(#clip0_2494_468)">
<mask id="mask0_2494_468" style="mask-type:luminance" maskUnits="userSpaceOnUse" x="0" y="8" width="60" height="30">
<path d="M60 8.50391H0V37.5039H60V8.50391Z" fill="white"/>
</mask>
<g mask="url(#mask0_2494_468)">
<path d="M53.0077 30.6238C55.663 27.9719 57.5819 24.674 58.5753 21.055C59.5687 17.4361 59.6023 13.6207 58.673 9.98474C55.0371 9.0556 51.2219 9.08946 47.603 10.083C43.9842 11.0765 40.6865 12.9955 38.0347 15.6508C35.3792 18.3026 33.4602 21.6003 32.4667 25.2191C31.4732 28.838 31.4394 32.6532 32.3686 36.2892C36.0046 37.2186 39.8199 37.185 43.4389 36.1916C47.0579 35.1982 50.3557 33.2793 53.0077 30.6238Z" fill="white"/>
<path d="M7.15232 30.6291C4.49695 27.9772 2.5781 24.6793 1.5847 21.0604C0.591301 17.4414 0.557623 13.6261 1.48698 9.99012C5.12289 9.06098 8.9381 9.09484 12.5569 10.0883C16.1758 11.0819 19.4735 13.0008 22.1253 15.6561C24.7807 18.3081 26.6996 21.6059 27.693 25.2249C28.6864 28.8439 28.7201 32.6592 27.7906 36.2952C24.1547 37.2244 20.3395 37.1906 16.7206 36.1971C13.1017 35.2036 9.80408 33.2846 7.15232 30.6291Z" fill="white"/>
</g>
<path d="M239.337 22.89C239.077 22.89 238.847 22.81 238.647 22.65C238.467 22.49 238.377 22.31 238.377 22.11V0.749999C238.377 0.509999 238.467 0.329999 238.647 0.209999C238.847 0.0699997 239.077 0 239.337 0C239.617 0 239.847 0.0699997 240.027 0.209999C240.227 0.329999 240.327 0.509999 240.327 0.749999V10.8C240.667 10.22 241.167 9.7 241.827 9.24C242.487 8.76 243.307 8.52 244.287 8.52C245.247 8.52 246.127 8.78 246.927 9.3C247.747 9.8 248.397 10.48 248.877 11.34C249.357 12.18 249.597 13.12 249.597 14.16V22.11C249.597 22.37 249.497 22.57 249.297 22.71C249.097 22.83 248.867 22.89 248.607 22.89C248.387 22.89 248.167 22.83 247.947 22.71C247.747 22.57 247.647 22.37 247.647 22.11V14.16C247.647 13.5 247.477 12.88 247.137 12.3C246.797 11.72 246.347 11.25 245.787 10.89C245.227 10.51 244.607 10.32 243.927 10.32C243.327 10.32 242.747 10.48 242.187 10.8C241.647 11.1 241.197 11.53 240.837 12.09C240.497 12.65 240.327 13.34 240.327 14.16V22.11C240.327 22.31 240.227 22.49 240.027 22.65C239.847 22.81 239.617 22.89 239.337 22.89Z" fill="white"/>
<path d="M229.824 23.1C228.504 23.1 227.414 22.85 226.554 22.35C225.694 21.85 225.054 21.17 224.634 20.31C224.214 19.45 224.004 18.48 224.004 17.4V14.22C224.004 13.14 224.204 12.17 224.604 11.31C225.024 10.45 225.664 9.77002 226.524 9.27002C227.404 8.77002 228.504 8.52002 229.824 8.52002C230.664 8.52002 231.394 8.63002 232.014 8.85002C232.654 9.05002 233.144 9.30002 233.484 9.60002C233.844 9.90002 234.024 10.19 234.024 10.47C234.024 10.61 233.984 10.76 233.904 10.92C233.844 11.06 233.744 11.18 233.604 11.28C233.484 11.38 233.344 11.43 233.184 11.43C233.004 11.43 232.794 11.34 232.554 11.16C232.334 10.96 232.024 10.77 231.624 10.59C231.224 10.41 230.654 10.32 229.914 10.32C228.614 10.32 227.624 10.67 226.944 11.37C226.284 12.05 225.954 13 225.954 14.22V17.4C225.954 18.62 226.284 19.58 226.944 20.28C227.624 20.96 228.624 21.3 229.944 21.3C230.704 21.3 231.294 21.21 231.714 21.03C232.134 20.83 232.454 20.64 232.674 20.46C232.914 20.26 233.134 20.16 233.334 20.16C233.514 20.16 233.664 20.21 233.784 20.31C233.924 20.41 234.024 20.53 234.084 20.67C234.164 20.81 234.204 20.96 234.204 21.12C234.204 21.38 234.024 21.67 233.664 21.99C233.304 22.29 232.794 22.55 232.134 22.77C231.494 22.99 230.724 23.1 229.824 23.1Z" fill="white"/>
<path d="M209.12 22.89C208.86 22.89 208.63 22.81 208.43 22.65C208.25 22.49 208.16 22.31 208.16 22.11V9.45002C208.16 9.21002 208.25 9.03002 208.43 8.91002C208.63 8.77002 208.86 8.70002 209.12 8.70002C209.38 8.70002 209.6 8.77002 209.78 8.91002C209.96 9.03002 210.05 9.21002 210.05 9.45002V10.8C210.37 10.22 210.87 9.70002 211.55 9.24002C212.23 8.76002 213.07 8.52002 214.07 8.52002C215.03 8.52002 215.91 8.78002 216.71 9.30002C217.53 9.80002 218.18 10.48 218.66 11.34C219.14 12.18 219.38 13.12 219.38 14.16V22.11C219.38 22.37 219.28 22.57 219.08 22.71C218.88 22.83 218.65 22.89 218.39 22.89C218.17 22.89 217.95 22.83 217.73 22.71C217.53 22.57 217.43 22.37 217.43 22.11V14.16C217.43 13.5 217.26 12.88 216.92 12.3C216.58 11.72 216.13 11.25 215.57 10.89C215.01 10.51 214.39 10.32 213.71 10.32C213.11 10.32 212.53 10.48 211.97 10.8C211.43 11.1 210.98 11.53 210.62 12.09C210.28 12.65 210.11 13.34 210.11 14.16V22.11C210.11 22.31 210.01 22.49 209.81 22.65C209.63 22.81 209.4 22.89 209.12 22.89Z" fill="white"/>
<path d="M197.387 23.1002C196.327 23.1002 195.357 22.8402 194.477 22.3202C193.617 21.8002 192.927 21.1102 192.407 20.2502C191.907 19.3702 191.657 18.4402 191.657 17.4602V9.4802C191.657 9.2802 191.757 9.1002 191.957 8.9402C192.157 8.7802 192.387 8.7002 192.647 8.7002C192.907 8.7002 193.127 8.7802 193.307 8.9402C193.507 9.1002 193.607 9.2802 193.607 9.4802V17.4602C193.607 18.1202 193.777 18.7402 194.117 19.3202C194.457 19.9002 194.907 20.3802 195.467 20.7602C196.027 21.1202 196.657 21.3002 197.357 21.3002C198.077 21.3002 198.717 21.1202 199.277 20.7602C199.837 20.4002 200.277 19.9302 200.597 19.3502C200.937 18.7502 201.107 18.1202 201.107 17.4602V9.4502C201.107 9.2302 201.207 9.0502 201.407 8.9102C201.607 8.7702 201.837 8.7002 202.097 8.7002C202.397 8.7002 202.627 8.7702 202.787 8.9102C202.967 9.0502 203.057 9.2302 203.057 9.4502V17.4602C203.057 18.4802 202.797 19.4202 202.277 20.2802C201.777 21.1202 201.087 21.8002 200.207 22.3202C199.347 22.8402 198.407 23.1002 197.387 23.1002Z" fill="white"/>
<path d="M180.272 23.1C179.132 23.1 178.162 22.78 177.362 22.14C176.582 21.48 176.192 20.48 176.192 19.14C176.192 18.04 176.482 17.2 177.062 16.62C177.662 16.02 178.482 15.61 179.522 15.39C180.582 15.15 181.802 15.03 183.182 15.03H184.712V14.34C184.712 13.68 184.592 13.04 184.352 12.42C184.132 11.78 183.762 11.26 183.242 10.86C182.742 10.44 182.052 10.23 181.172 10.23C180.512 10.23 179.972 10.3 179.552 10.44C179.132 10.58 178.802 10.73 178.562 10.89C178.322 11.03 178.122 11.1 177.962 11.1C177.722 11.1 177.522 10.98 177.362 10.74C177.222 10.5 177.152 10.28 177.152 10.08C177.152 9.80002 177.362 9.55002 177.782 9.33002C178.202 9.09002 178.722 8.90002 179.342 8.76002C179.982 8.60002 180.612 8.52002 181.232 8.52002C182.572 8.52002 183.632 8.80002 184.412 9.36002C185.212 9.90002 185.782 10.61 186.122 11.49C186.482 12.37 186.662 13.31 186.662 14.31V22.11C186.662 22.33 186.572 22.52 186.392 22.68C186.232 22.82 186.002 22.89 185.702 22.89C185.462 22.89 185.242 22.82 185.042 22.68C184.862 22.52 184.772 22.33 184.772 22.11V20.79C184.272 21.39 183.652 21.93 182.912 22.41C182.172 22.87 181.292 23.1 180.272 23.1ZM180.752 21.45C181.412 21.45 182.042 21.28 182.642 20.94C183.242 20.6 183.732 20.19 184.112 19.71C184.512 19.21 184.712 18.74 184.712 18.3V16.38H183.452C182.552 16.38 181.692 16.44 180.872 16.56C180.072 16.66 179.412 16.89 178.892 17.25C178.392 17.61 178.142 18.18 178.142 18.96C178.142 19.82 178.392 20.45 178.892 20.85C179.412 21.25 180.032 21.45 180.752 21.45Z" fill="white"/>
<path d="M163.086 22.8899C162.866 22.8899 162.656 22.8299 162.456 22.7099C162.276 22.5699 162.186 22.3699 162.186 22.1099V1.70996C162.186 1.44996 162.286 1.25996 162.486 1.13996C162.686 1.01996 162.916 0.959961 163.176 0.959961C163.416 0.959961 163.636 1.01996 163.836 1.13996C164.056 1.25996 164.166 1.44996 164.166 1.70996V21.0599H172.716C172.956 21.0599 173.126 21.1599 173.226 21.3599C173.326 21.5399 173.376 21.7399 173.376 21.9599C173.376 22.1999 173.326 22.4199 173.226 22.6199C173.126 22.7999 172.956 22.8899 172.716 22.8899H163.086Z" fill="white"/>
<path d="M143.817 22.89C143.557 22.89 143.327 22.81 143.127 22.65C142.947 22.49 142.857 22.31 142.857 22.11V9.45002C142.857 9.21002 142.947 9.03002 143.127 8.91002C143.327 8.77002 143.557 8.70002 143.817 8.70002C144.077 8.70002 144.297 8.77002 144.477 8.91002C144.657 9.03002 144.747 9.21002 144.747 9.45002V10.92C144.967 10.5 145.267 10.11 145.647 9.75002C146.027 9.39002 146.477 9.10002 146.997 8.88002C147.517 8.64002 148.107 8.52002 148.767 8.52002H149.817C150.037 8.52002 150.217 8.61002 150.357 8.79002C150.517 8.97002 150.597 9.18002 150.597 9.42002C150.597 9.68002 150.517 9.90002 150.357 10.08C150.217 10.24 150.037 10.32 149.817 10.32H148.767C148.107 10.32 147.467 10.5 146.847 10.86C146.247 11.22 145.757 11.72 145.377 12.36C144.997 13 144.807 13.78 144.807 14.7V22.11C144.807 22.31 144.707 22.49 144.507 22.65C144.327 22.81 144.097 22.89 143.817 22.89Z" fill="white"/>
<path d="M133.556 23.1C132.296 23.1 131.176 22.86 130.196 22.38C129.236 21.9 128.476 21.24 127.916 20.4C127.376 19.54 127.106 18.54 127.106 17.4V14.07C127.106 13.07 127.366 12.15 127.886 11.31C128.406 10.45 129.096 9.77002 129.956 9.27002C130.836 8.77002 131.796 8.52002 132.836 8.52002C133.836 8.52002 134.756 8.76002 135.596 9.24002C136.456 9.70002 137.146 10.34 137.666 11.16C138.186 11.98 138.446 12.93 138.446 14.01C138.446 14.77 138.316 15.32 138.056 15.66C137.796 16 137.466 16.21 137.066 16.29C136.686 16.35 136.276 16.38 135.836 16.38H129.056V17.49C129.056 18.69 129.486 19.64 130.346 20.34C131.206 21.04 132.296 21.39 133.616 21.39C134.416 21.39 135.036 21.29 135.476 21.09C135.916 20.89 136.256 20.69 136.496 20.49C136.756 20.29 136.996 20.19 137.216 20.19C137.376 20.19 137.516 20.25 137.636 20.37C137.776 20.47 137.876 20.59 137.936 20.73C138.016 20.87 138.056 21 138.056 21.12C138.056 21.34 137.876 21.61 137.516 21.93C137.156 22.25 136.636 22.53 135.956 22.77C135.276 22.99 134.476 23.1 133.556 23.1ZM129.056 14.94H135.056C135.656 14.94 136.056 14.88 136.256 14.76C136.456 14.62 136.556 14.34 136.556 13.92C136.556 13.28 136.396 12.68 136.076 12.12C135.756 11.54 135.316 11.07 134.756 10.71C134.196 10.33 133.546 10.14 132.806 10.14C132.126 10.14 131.496 10.31 130.916 10.65C130.356 10.99 129.906 11.43 129.566 11.97C129.226 12.51 129.056 13.12 129.056 13.8V14.94Z" fill="white"/>
<path d="M118.316 23.1C117.056 23.1 115.936 22.86 114.956 22.38C113.996 21.9 113.236 21.24 112.676 20.4C112.136 19.54 111.866 18.54 111.866 17.4V14.07C111.866 13.07 112.126 12.15 112.646 11.31C113.166 10.45 113.856 9.77002 114.716 9.27002C115.596 8.77002 116.556 8.52002 117.596 8.52002C118.596 8.52002 119.516 8.76002 120.356 9.24002C121.216 9.70002 121.906 10.34 122.426 11.16C122.946 11.98 123.206 12.93 123.206 14.01C123.206 14.77 123.076 15.32 122.816 15.66C122.556 16 122.226 16.21 121.826 16.29C121.446 16.35 121.036 16.38 120.596 16.38H113.816V17.49C113.816 18.69 114.246 19.64 115.106 20.34C115.966 21.04 117.056 21.39 118.376 21.39C119.176 21.39 119.796 21.29 120.236 21.09C120.676 20.89 121.016 20.69 121.256 20.49C121.516 20.29 121.756 20.19 121.976 20.19C122.136 20.19 122.276 20.25 122.396 20.37C122.536 20.47 122.636 20.59 122.696 20.73C122.776 20.87 122.816 21 122.816 21.12C122.816 21.34 122.636 21.61 122.276 21.93C121.916 22.25 121.396 22.53 120.716 22.77C120.036 22.99 119.236 23.1 118.316 23.1ZM113.816 14.94H119.816C120.416 14.94 120.816 14.88 121.016 14.76C121.216 14.62 121.316 14.34 121.316 13.92C121.316 13.28 121.156 12.68 120.836 12.12C120.516 11.54 120.076 11.07 119.516 10.71C118.956 10.33 118.306 10.14 117.566 10.14C116.886 10.14 116.256 10.31 115.676 10.65C115.116 10.99 114.666 11.43 114.326 11.97C113.986 12.51 113.816 13.12 113.816 13.8V14.94Z" fill="white"/>
<path d="M102.579 22.89C102.319 22.89 102.089 22.81 101.889 22.65C101.709 22.49 101.619 22.31 101.619 22.11V9.45002C101.619 9.21002 101.709 9.03002 101.889 8.91002C102.089 8.77002 102.319 8.70002 102.579 8.70002C102.839 8.70002 103.059 8.77002 103.239 8.91002C103.419 9.03002 103.509 9.21002 103.509 9.45002V10.92C103.729 10.5 104.029 10.11 104.409 9.75002C104.789 9.39002 105.239 9.10002 105.759 8.88002C106.279 8.64002 106.869 8.52002 107.529 8.52002H108.579C108.799 8.52002 108.979 8.61002 109.119 8.79002C109.279 8.97002 109.359 9.18002 109.359 9.42002C109.359 9.68002 109.279 9.90002 109.119 10.08C108.979 10.24 108.799 10.32 108.579 10.32H107.529C106.869 10.32 106.229 10.5 105.609 10.86C105.009 11.22 104.519 11.72 104.139 12.36C103.759 13 103.569 13.78 103.569 14.7V22.11C103.569 22.31 103.469 22.49 103.269 22.65C103.089 22.81 102.859 22.89 102.579 22.89Z" fill="white"/>
<path d="M90.1142 23.1C88.9742 23.1 88.0042 22.78 87.2042 22.14C86.4242 21.48 86.0342 20.48 86.0342 19.14C86.0342 18.04 86.3242 17.2 86.9042 16.62C87.5042 16.02 88.3242 15.61 89.3642 15.39C90.4242 15.15 91.6442 15.03 93.0242 15.03H94.5542V14.34C94.5542 13.68 94.4342 13.04 94.1942 12.42C93.9742 11.78 93.6042 11.26 93.0842 10.86C92.5842 10.44 91.8942 10.23 91.0142 10.23C90.3542 10.23 89.8142 10.3 89.3942 10.44C88.9742 10.58 88.6442 10.73 88.4042 10.89C88.1642 11.03 87.9642 11.1 87.8042 11.1C87.5642 11.1 87.3642 10.98 87.2042 10.74C87.0642 10.5 86.9942 10.28 86.9942 10.08C86.9942 9.80002 87.2042 9.55002 87.6242 9.33002C88.0442 9.09002 88.5642 8.90002 89.1842 8.76002C89.8242 8.60002 90.4542 8.52002 91.0742 8.52002C92.4142 8.52002 93.4742 8.80002 94.2542 9.36002C95.0542 9.90002 95.6242 10.61 95.9642 11.49C96.3242 12.37 96.5042 13.31 96.5042 14.31V22.11C96.5042 22.33 96.4142 22.52 96.2342 22.68C96.0742 22.82 95.8442 22.89 95.5442 22.89C95.3042 22.89 95.0842 22.82 94.8842 22.68C94.7042 22.52 94.6142 22.33 94.6142 22.11V20.79C94.1142 21.39 93.4942 21.93 92.7542 22.41C92.0142 22.87 91.1342 23.1 90.1142 23.1ZM90.5942 21.45C91.2542 21.45 91.8842 21.28 92.4842 20.94C93.0842 20.6 93.5742 20.19 93.9542 19.71C94.3542 19.21 94.5542 18.74 94.5542 18.3V16.38H93.2942C92.3942 16.38 91.5342 16.44 90.7142 16.56C89.9142 16.66 89.2542 16.89 88.7342 17.25C88.2342 17.61 87.9842 18.18 87.9842 18.96C87.9842 19.82 88.2342 20.45 88.7342 20.85C89.2542 21.25 89.8742 21.45 90.5942 21.45Z" fill="white"/>
<path d="M76.24 23.0699C75.12 23.0699 74.08 22.8599 73.12 22.4399C72.16 22.0199 71.4 21.3399 70.84 20.3999C70.28 19.4599 70 18.2099 70 16.6499V7.37996C70 5.81996 70.29 4.56996 70.87 3.62996C71.45 2.68996 72.21 2.00996 73.15 1.58996C74.11 1.16996 75.16 0.959961 76.3 0.959961C77.62 0.959961 78.74 1.18996 79.66 1.64996C80.58 2.10996 81.28 2.71996 81.76 3.47996C82.26 4.23996 82.51 5.07996 82.51 5.99996C82.51 6.47996 82.42 6.79996 82.24 6.95996C82.08 7.09996 81.84 7.16996 81.52 7.16996C81.16 7.16996 80.9 7.09996 80.74 6.95996C80.6 6.79996 80.52 6.61996 80.5 6.41996C80.5 6.09996 80.44 5.73996 80.32 5.33996C80.22 4.91996 80.02 4.51996 79.72 4.13996C79.44 3.73996 79.02 3.41996 78.46 3.17996C77.92 2.91996 77.21 2.78996 76.33 2.78996C74.93 2.78996 73.86 3.16996 73.12 3.92996C72.38 4.66996 72.01 5.81996 72.01 7.37996V16.6499C72.01 18.2299 72.38 19.3899 73.12 20.1299C73.88 20.8699 74.98 21.2399 76.42 21.2399C77.32 21.2399 78.03 21.1199 78.55 20.8799C79.07 20.6199 79.46 20.3099 79.72 19.9499C79.98 19.5699 80.16 19.1699 80.26 18.7499C80.38 18.3099 80.46 17.9099 80.5 17.5499C80.54 17.2899 80.63 17.0999 80.77 16.9799C80.93 16.8399 81.17 16.7699 81.49 16.7699C81.83 16.7699 82.08 16.8599 82.24 17.0399C82.42 17.1999 82.51 17.5199 82.51 17.9999C82.51 18.8999 82.26 19.7399 81.76 20.5199C81.26 21.2799 80.54 21.8999 79.6 22.3799C78.68 22.8399 77.56 23.0699 76.24 23.0699Z" fill="white"/>
<path d="M148.252 44.208L147.64 43.716C147.648 43.604 147.652 43.412 147.652 43.14C147.66 42.86 147.664 42.54 147.664 42.18C147.672 41.812 147.676 41.432 147.676 41.04C147.676 40.648 147.676 40.284 147.676 39.948C147.676 39.38 147.672 38.82 147.664 38.268C147.664 37.716 147.656 37.28 147.64 36.96H148.804C148.796 37.112 148.788 37.36 148.78 37.704C148.78 38.04 148.776 38.408 148.768 38.808C148.768 39.2 148.768 39.564 148.768 39.9V42.72C149.104 42.568 149.48 42.384 149.896 42.168C150.312 41.952 150.724 41.724 151.132 41.484C151.54 41.244 151.912 41.008 152.248 40.776C152.584 40.544 152.844 40.34 153.028 40.164C153.028 40.268 153.04 40.408 153.064 40.584C153.088 40.76 153.116 40.928 153.148 41.088C153.188 41.24 153.216 41.348 153.232 41.412C152.968 41.636 152.62 41.884 152.188 42.156C151.764 42.42 151.308 42.688 150.82 42.96C150.34 43.224 149.872 43.468 149.416 43.692C148.96 43.908 148.572 44.08 148.252 44.208ZM143.02 44.592C142.972 44.512 142.9 44.416 142.804 44.304C142.708 44.192 142.604 44.084 142.492 43.98C142.388 43.868 142.296 43.78 142.216 43.716C143.096 43.252 143.756 42.72 144.196 42.12C144.636 41.52 144.908 40.832 145.012 40.056C145.116 39.272 145.096 38.388 144.952 37.404L146.032 37.308C146.2 38.436 146.212 39.452 146.068 40.356C145.932 41.252 145.616 42.048 145.12 42.744C144.624 43.44 143.924 44.056 143.02 44.592Z" fill="white"/>
<path d="M128.379 41.1239C128.379 41.0519 128.379 40.9399 128.379 40.7879C128.379 40.6279 128.379 40.4719 128.379 40.3199C128.379 40.1679 128.375 40.0559 128.367 39.9839C128.567 39.9919 128.867 39.9999 129.267 40.0079C129.667 40.0079 130.131 40.0119 130.659 40.0199C131.195 40.0199 131.759 40.0239 132.351 40.0319C132.951 40.0319 133.547 40.0319 134.139 40.0319C134.739 40.0319 135.303 40.0319 135.831 40.0319C136.359 40.0239 136.823 40.0159 137.223 40.0079C137.623 39.9999 137.919 39.9919 138.111 39.9839C138.111 40.0079 138.111 40.0439 138.111 40.0919C138.111 40.1399 138.111 40.1919 138.111 40.2479C138.111 40.3919 138.107 40.5559 138.099 40.7399C138.099 40.9159 138.103 41.0399 138.111 41.1119C137.863 41.1039 137.495 41.0959 137.007 41.0879C136.519 41.0799 135.959 41.0759 135.327 41.0759C134.703 41.0679 134.051 41.0639 133.371 41.0639C132.691 41.0639 132.027 41.0679 131.379 41.0759C130.731 41.0759 130.143 41.0799 129.615 41.0879C129.095 41.0959 128.683 41.1079 128.379 41.1239Z" fill="white"/>
<path d="M115.36 45.4199C115.32 45.3319 115.256 45.2239 115.168 45.0959C115.08 44.9679 114.988 44.8439 114.892 44.7239C114.804 44.6039 114.724 44.5119 114.652 44.4479C115.636 44.0559 116.56 43.5559 117.424 42.9479C118.288 42.3399 119.056 41.6479 119.728 40.8719C120.408 40.0959 120.948 39.2759 121.348 38.4119C121.1 38.4199 120.824 38.4319 120.52 38.4479C120.224 38.4639 119.928 38.4759 119.632 38.4839C119.344 38.4919 119.084 38.4999 118.852 38.5079C118.628 38.5159 118.46 38.5199 118.348 38.5199C117.532 39.5919 116.568 40.4999 115.456 41.2439C115.408 41.1799 115.328 41.0959 115.216 40.9919C115.112 40.8879 115.004 40.7879 114.892 40.6919C114.78 40.5879 114.684 40.5119 114.604 40.4639C115.204 40.1119 115.772 39.6799 116.308 39.1679C116.844 38.6559 117.316 38.0999 117.724 37.4999C118.132 36.8999 118.448 36.3039 118.672 35.7119L119.728 36.0959C119.632 36.3359 119.524 36.5719 119.404 36.8039C119.292 37.0359 119.168 37.2639 119.032 37.4879C119.296 37.4799 119.588 37.4719 119.908 37.4639C120.236 37.4559 120.556 37.4479 120.868 37.4399C121.18 37.4239 121.452 37.4119 121.684 37.4039C121.924 37.3879 122.08 37.3759 122.152 37.3679L122.824 37.7639C122.44 38.8679 121.884 39.9079 121.156 40.8839C120.428 41.8599 119.568 42.7359 118.576 43.5119C117.592 44.2799 116.52 44.9159 115.36 45.4199Z" fill="white"/>
<path d="M100.503 44.7361C100.423 44.6161 100.311 44.4561 100.167 44.2561C100.031 44.0481 99.9032 43.8961 99.7832 43.8001C100.399 43.5361 101.015 43.2001 101.631 42.7921C102.247 42.3841 102.835 41.9281 103.395 41.4241C103.955 40.9121 104.463 40.3721 104.919 39.8041C105.375 39.2281 105.751 38.6481 106.047 38.0641C105.679 38.0881 105.259 38.1161 104.787 38.1481C104.323 38.1721 103.851 38.2001 103.371 38.2321C102.899 38.2641 102.463 38.2921 102.063 38.3161C101.663 38.3401 101.347 38.3601 101.115 38.3761L100.983 37.2121C101.175 37.2121 101.467 37.2081 101.859 37.2001C102.251 37.1921 102.687 37.1801 103.167 37.1641C103.655 37.1401 104.139 37.1161 104.619 37.0921C105.107 37.0601 105.543 37.0321 105.927 37.0081C106.319 36.9761 106.607 36.9441 106.791 36.9121L107.535 37.3921C107.335 37.9441 107.079 38.4841 106.767 39.0121C106.463 39.5401 106.111 40.0521 105.711 40.5481C105.983 40.7641 106.275 41.0081 106.587 41.2801C106.899 41.5521 107.207 41.8361 107.511 42.1321C107.815 42.4201 108.099 42.7001 108.363 42.9721C108.627 43.2361 108.843 43.4761 109.011 43.6921C108.875 43.7801 108.711 43.9081 108.519 44.0761C108.335 44.2361 108.187 44.3841 108.075 44.5201C107.915 44.2961 107.711 44.0481 107.463 43.7761C107.223 43.4961 106.959 43.2121 106.671 42.9241C106.383 42.6281 106.095 42.3441 105.807 42.0721C105.519 41.8001 105.255 41.5641 105.015 41.3641C104.351 42.0761 103.627 42.7241 102.843 43.3081C102.059 43.8841 101.279 44.3601 100.503 44.7361Z" fill="white"/>
<path d="M88.7079 45.6719V41.3159H91.0599V39.4919H87.7479V38.4959H91.0599V36.7919C90.0519 36.8879 89.1959 36.9439 88.4919 36.9599C88.4599 36.8479 88.4159 36.6839 88.3599 36.4679C88.3039 36.2519 88.2479 36.0879 88.1919 35.9759C88.6319 35.9839 89.1199 35.9719 89.6559 35.9399C90.1999 35.9079 90.7519 35.8639 91.3119 35.8079C91.8719 35.7439 92.3999 35.6719 92.8959 35.5919C93.3919 35.5039 93.8159 35.4119 94.1679 35.3159L94.8159 36.2159C94.4959 36.3039 94.0999 36.3879 93.6279 36.4679C93.1639 36.5399 92.6679 36.6079 92.1399 36.6719V38.4959H95.4879V39.4919H92.1399V41.3159H94.5399V45.6719H88.7079ZM89.7999 44.7119H93.4599V42.2759H89.7999V44.7119ZM85.6479 45.7679L84.6879 45.0719C84.8639 44.8479 85.0519 44.5719 85.2519 44.2439C85.4599 43.9159 85.6639 43.5679 85.8639 43.1999C86.0639 42.8239 86.2439 42.4639 86.4039 42.1199C86.5719 41.7679 86.6999 41.4639 86.7879 41.2079C86.8519 41.2639 86.9399 41.3399 87.0519 41.4359C87.1639 41.5319 87.2759 41.6239 87.3879 41.7119C87.5079 41.7919 87.6039 41.8519 87.6759 41.8919C87.5959 42.1399 87.4719 42.4359 87.3039 42.7799C87.1439 43.1239 86.9639 43.4839 86.7639 43.8599C86.5639 44.2359 86.3639 44.5919 86.1639 44.9279C85.9719 45.2639 85.7999 45.5439 85.6479 45.7679ZM86.6439 40.3079C86.4999 40.1719 86.2999 40.0159 86.0439 39.8399C85.7879 39.6559 85.5239 39.4799 85.2519 39.3119C84.9799 39.1359 84.7439 39.0079 84.5439 38.9279L85.1079 38.0159C85.3319 38.1199 85.5759 38.2519 85.8399 38.4119C86.1119 38.5639 86.3759 38.7239 86.6319 38.8919C86.8879 39.0599 87.0999 39.2239 87.2679 39.3839C87.2279 39.4319 87.1639 39.5199 87.0759 39.6479C86.9879 39.7679 86.8999 39.8919 86.8119 40.0199C86.7319 40.1479 86.6759 40.2439 86.6439 40.3079ZM87.2439 37.6079C87.0999 37.4719 86.8999 37.3119 86.6439 37.1279C86.3879 36.9439 86.1239 36.7679 85.8519 36.5999C85.5799 36.4319 85.3439 36.3079 85.1439 36.2279L85.7079 35.3399C85.9159 35.4279 86.1599 35.5519 86.4399 35.7119C86.7199 35.8719 86.9919 36.0399 87.2559 36.2159C87.5199 36.3919 87.7279 36.5519 87.8799 36.6959C87.8399 36.7439 87.7759 36.8319 87.6879 36.9599C87.5999 37.0799 87.5119 37.2039 87.4239 37.3319C87.3359 37.4519 87.2759 37.5439 87.2439 37.6079Z" fill="white"/>
<path d="M75.124 46.0081C75.06 45.9121 74.952 45.7801 74.8 45.6121C74.648 45.4441 74.516 45.3201 74.404 45.2401C75.108 44.8161 75.664 44.2921 76.072 43.6681C76.48 43.0361 76.776 42.3281 76.96 41.5441C77.152 40.7521 77.264 39.9121 77.296 39.0241H75.664V38.0521H77.308V35.1001H78.352V38.0521H81.016V39.0241H78.34C78.332 39.1841 78.32 39.3441 78.304 39.5041C78.296 39.6641 78.284 39.8241 78.268 39.9841H79.048V44.4841C79.048 44.5721 79.068 44.6361 79.108 44.6761C79.148 44.7161 79.22 44.7401 79.324 44.7481C79.332 44.7481 79.364 44.7521 79.42 44.7601C79.484 44.7601 79.548 44.7641 79.612 44.7721C79.684 44.7721 79.724 44.7721 79.732 44.7721C79.884 44.7721 80.004 44.7521 80.092 44.7121C80.18 44.6641 80.248 44.5521 80.296 44.3761C80.344 44.1921 80.38 43.9001 80.404 43.5001C80.516 43.5561 80.668 43.6201 80.86 43.6921C81.06 43.7641 81.228 43.8201 81.364 43.8601C81.308 44.4281 81.22 44.8481 81.1 45.1201C80.98 45.4001 80.812 45.5801 80.596 45.6601C80.388 45.7481 80.124 45.7921 79.804 45.7921H79.06C78.692 45.7921 78.424 45.7281 78.256 45.6001C78.096 45.4801 78.016 45.2721 78.016 44.9761V41.4601C77.8 42.3961 77.46 43.2601 76.996 44.0521C76.54 44.8361 75.916 45.4881 75.124 46.0081ZM71.74 45.9241C71.724 45.7881 71.692 45.6121 71.644 45.3961C71.596 45.1801 71.552 45.0161 71.512 44.9041H72.196C72.356 44.9041 72.468 44.8801 72.532 44.8321C72.596 44.7761 72.628 44.6721 72.628 44.5201V41.4601H70.864V38.4121H75.316V41.4601H73.624V44.8801C73.624 45.5761 73.22 45.9241 72.412 45.9241H71.74ZM70.228 37.5481V36.6121H72.592V35.1001H73.684V36.6121H75.94V37.5481H70.228ZM71.86 40.5841H74.32V39.2761H71.86V40.5841ZM70.936 44.9041C70.832 44.8401 70.68 44.7681 70.48 44.6881C70.28 44.6001 70.12 44.5521 70 44.5441C70.136 44.3441 70.276 44.0921 70.42 43.7881C70.564 43.4761 70.692 43.1601 70.804 42.8401C70.924 42.5201 71.008 42.2401 71.056 42.0001L72.04 42.2521C71.968 42.5241 71.872 42.8241 71.752 43.1521C71.632 43.4721 71.5 43.7881 71.356 44.1001C71.212 44.4121 71.072 44.6801 70.936 44.9041ZM74.932 44.1961C74.868 44.0201 74.776 43.8161 74.656 43.5841C74.544 43.3441 74.424 43.1081 74.296 42.8761C74.168 42.6441 74.044 42.4521 73.924 42.3001L74.776 41.8801C74.896 42.0481 75.024 42.2481 75.16 42.4801C75.296 42.7041 75.424 42.9281 75.544 43.1521C75.664 43.3761 75.76 43.5761 75.832 43.7521C75.76 43.7681 75.664 43.8081 75.544 43.8721C75.432 43.9281 75.316 43.9881 75.196 44.0521C75.084 44.1161 74.996 44.1641 74.932 44.1961ZM79.984 37.7761C79.888 37.6321 79.76 37.4681 79.6 37.2841C79.44 37.1001 79.272 36.9201 79.096 36.7441C78.928 36.5601 78.772 36.4121 78.628 36.3001L79.384 35.6521C79.52 35.7721 79.672 35.9201 79.84 36.0961C80.016 36.2721 80.184 36.4521 80.344 36.6361C80.512 36.8121 80.648 36.9761 80.752 37.1281C80.648 37.1841 80.516 37.2841 80.356 37.4281C80.196 37.5721 80.072 37.6881 79.984 37.7761Z" fill="white"/>
</g>
<defs>
<clipPath id="clip0_2494_468">
<rect width="250" height="46" fill="white"/>
</clipPath>
</defs>
</svg>
