<svg width="290" height="53" viewBox="0 0 290 53" fill="none" xmlns="http://www.w3.org/2000/svg">
<g clip-path="url(#clip0_2494_521)">
<mask id="mask0_2494_521" style="mask-type:luminance" maskUnits="userSpaceOnUse" x="0" y="9" width="70" height="35">
<path d="M69.6 9.79813H0V43.2112H69.6V9.79813Z" fill="white"/>
</mask>
<g mask="url(#mask0_2494_521)">
<path d="M61.4889 35.2839C64.5691 32.2285 66.795 28.4287 67.9473 24.259C69.0997 20.0894 69.1386 15.6934 68.0607 11.5042C63.843 10.4337 59.4174 10.4727 55.2195 11.6174C51.0216 12.762 47.1963 14.9731 44.1202 18.0324C41.0398 21.0878 38.8138 24.8873 37.6613 29.0568C36.5089 33.2264 36.4697 37.6222 37.5475 41.8115C41.7653 42.8823 46.1911 42.8436 50.3891 41.699C54.5871 40.5544 58.4126 38.3435 61.4889 35.2839Z" fill="white"/>
<path d="M8.29634 35.2902C5.21611 32.2347 2.99024 28.435 1.8379 24.2654C0.685558 20.0956 0.646491 15.6998 1.72455 11.5105C5.9422 10.4399 10.3678 10.4789 14.5657 11.6236C18.7636 12.7684 22.5889 14.9793 25.665 18.0387C28.7453 21.0942 30.9712 24.8939 32.1236 29.0636C33.2759 33.2333 33.315 37.6292 32.2368 41.8185C28.0191 42.8891 23.5935 42.8502 19.3956 41.7055C15.1977 40.5608 11.3724 38.3498 8.29634 35.2902Z" fill="white"/>
</g>
<path d="M277.631 26.3733C277.33 26.3733 277.063 26.2811 276.831 26.0967C276.622 25.9124 276.518 25.705 276.518 25.4746V0.864129C276.518 0.587608 276.622 0.380216 276.831 0.241955C277.063 0.0806518 277.33 0 277.631 0C277.956 0 278.223 0.0806518 278.432 0.241955C278.664 0.380216 278.78 0.587608 278.78 0.864129V12.4435C279.174 11.7752 279.754 11.1761 280.52 10.6461C281.285 10.093 282.236 9.81652 283.373 9.81652C284.487 9.81652 285.508 10.1161 286.436 10.7152C287.387 11.2913 288.141 12.0748 288.698 13.0657C289.254 14.0335 289.533 15.1165 289.533 16.3148V25.4746C289.533 25.7741 289.417 26.0046 289.185 26.1659C288.953 26.3041 288.686 26.3733 288.384 26.3733C288.129 26.3733 287.874 26.3041 287.619 26.1659C287.387 26.0046 287.271 25.7741 287.271 25.4746V16.3148C287.271 15.5543 287.074 14.84 286.679 14.1717C286.285 13.5035 285.763 12.962 285.113 12.5472C284.464 12.1093 283.744 11.8904 282.956 11.8904C282.26 11.8904 281.587 12.0748 280.937 12.4435C280.311 12.7891 279.789 13.2846 279.371 13.9298C278.977 14.575 278.78 15.37 278.78 16.3148V25.4746C278.78 25.705 278.664 25.9124 278.432 26.0967C278.223 26.2811 277.956 26.3733 277.631 26.3733Z" fill="white"/>
<path d="M266.596 26.6152C265.065 26.6152 263.8 26.3272 262.803 25.7511C261.805 25.175 261.063 24.3915 260.576 23.4007C260.088 22.4098 259.845 21.2922 259.845 20.0478V16.3839C259.845 15.1396 260.077 14.022 260.541 13.0311C261.028 12.0402 261.77 11.2568 262.768 10.6807C263.789 10.1046 265.065 9.81656 266.596 9.81656C267.57 9.81656 268.417 9.9433 269.136 10.1968C269.879 10.4272 270.447 10.7153 270.842 11.0609C271.259 11.4066 271.468 11.7407 271.468 12.0633C271.468 12.2246 271.422 12.3974 271.329 12.5818C271.259 12.7431 271.143 12.8813 270.981 12.9965C270.842 13.1118 270.679 13.1694 270.494 13.1694C270.285 13.1694 270.041 13.0657 269.763 12.8583C269.508 12.6278 269.148 12.4089 268.684 12.2015C268.22 11.9941 267.559 11.8904 266.7 11.8904C265.192 11.8904 264.044 12.2937 263.255 13.1002C262.49 13.8837 262.107 14.9783 262.107 16.3839V20.0478C262.107 21.4535 262.49 22.5596 263.255 23.3661C264.044 24.1496 265.204 24.5413 266.735 24.5413C267.617 24.5413 268.301 24.4376 268.788 24.2302C269.276 23.9998 269.647 23.7809 269.902 23.5735C270.18 23.3431 270.436 23.2278 270.668 23.2278C270.876 23.2278 271.05 23.2854 271.19 23.4007C271.352 23.5159 271.468 23.6541 271.538 23.8154C271.63 23.9768 271.677 24.1496 271.677 24.3339C271.677 24.6335 271.468 24.9676 271.05 25.3363C270.633 25.682 270.041 25.9815 269.276 26.235C268.533 26.4885 267.64 26.6152 266.596 26.6152Z" fill="white"/>
<path d="M242.579 26.3733C242.278 26.3733 242.011 26.2811 241.779 26.0968C241.57 25.9124 241.466 25.705 241.466 25.4746V10.8881C241.466 10.6116 241.57 10.4042 241.779 10.2659C242.011 10.1046 242.278 10.024 242.579 10.024C242.881 10.024 243.136 10.1046 243.345 10.2659C243.554 10.4042 243.658 10.6116 243.658 10.8881V12.4435C244.029 11.7752 244.609 11.1761 245.398 10.6461C246.187 10.0931 247.161 9.81656 248.321 9.81656C249.435 9.81656 250.456 10.1161 251.384 10.7153C252.335 11.2913 253.089 12.0748 253.646 13.0657C254.203 14.0335 254.481 15.1165 254.481 16.3148V25.4746C254.481 25.7741 254.365 26.0046 254.133 26.1659C253.901 26.3041 253.634 26.3733 253.333 26.3733C253.077 26.3733 252.822 26.3041 252.567 26.1659C252.335 26.0046 252.219 25.7741 252.219 25.4746V16.3148C252.219 15.5544 252.022 14.84 251.627 14.1718C251.233 13.5035 250.711 12.962 250.061 12.5472C249.412 12.1094 248.693 11.8904 247.904 11.8904C247.208 11.8904 246.535 12.0748 245.885 12.4435C245.259 12.7891 244.737 13.2846 244.319 13.9298C243.925 14.575 243.728 15.37 243.728 16.3148V25.4746C243.728 25.705 243.612 25.9124 243.38 26.0968C243.171 26.2811 242.904 26.3733 242.579 26.3733Z" fill="white"/>
<path d="M228.969 26.6152C227.739 26.6152 226.614 26.3157 225.593 25.7165C224.596 25.1174 223.795 24.3224 223.192 23.3315C222.612 22.3176 222.322 21.2461 222.322 20.117V10.9226C222.322 10.6922 222.438 10.4848 222.67 10.3004C222.902 10.1161 223.169 10.0239 223.471 10.0239C223.772 10.0239 224.027 10.1161 224.236 10.3004C224.468 10.4848 224.584 10.6922 224.584 10.9226V20.117C224.584 20.8774 224.781 21.5917 225.176 22.26C225.57 22.9283 226.092 23.4813 226.742 23.9191C227.391 24.3339 228.122 24.5413 228.934 24.5413C229.769 24.5413 230.512 24.3339 231.161 23.9191C231.811 23.5043 232.321 22.9628 232.693 22.2946C233.087 21.6033 233.284 20.8774 233.284 20.117V10.8881C233.284 10.6346 233.4 10.4272 233.632 10.2659C233.864 10.1046 234.131 10.0239 234.433 10.0239C234.781 10.0239 235.047 10.1046 235.233 10.2659C235.442 10.4272 235.546 10.6346 235.546 10.8881V20.117C235.546 21.2922 235.245 22.3752 234.641 23.3661C234.061 24.3339 233.261 25.1174 232.24 25.7165C231.243 26.3157 230.152 26.6152 228.969 26.6152Z" fill="white"/>
<path d="M209.116 26.6152C207.793 26.6152 206.668 26.2465 205.74 25.5091C204.835 24.7487 204.383 23.5965 204.383 22.0526C204.383 20.7852 204.719 19.8174 205.392 19.1491C206.088 18.4578 207.039 17.9854 208.246 17.732C209.475 17.4554 210.89 17.3172 212.491 17.3172H214.266V16.5222C214.266 15.7618 214.127 15.0244 213.848 14.31C213.593 13.5726 213.164 12.9735 212.561 12.5126C211.981 12.0287 211.18 11.7868 210.16 11.7868C209.394 11.7868 208.768 11.8674 208.28 12.0287C207.793 12.19 207.41 12.3628 207.132 12.5472C206.854 12.7085 206.622 12.7891 206.436 12.7891C206.158 12.7891 205.926 12.6509 205.74 12.3744C205.578 12.0978 205.496 11.8444 205.496 11.6139C205.496 11.2913 205.74 11.0033 206.227 10.7498C206.714 10.4733 207.318 10.2544 208.037 10.0931C208.779 9.90873 209.51 9.81656 210.229 9.81656C211.784 9.81656 213.013 10.1392 213.918 10.7844C214.846 11.4066 215.507 12.2246 215.902 13.2385C216.319 14.2524 216.528 15.3354 216.528 16.4876V25.4746C216.528 25.7281 216.424 25.947 216.215 26.1313C216.029 26.2926 215.762 26.3733 215.414 26.3733C215.136 26.3733 214.881 26.2926 214.649 26.1313C214.44 25.947 214.336 25.7281 214.336 25.4746V23.9537C213.756 24.645 213.036 25.2672 212.178 25.8202C211.32 26.3502 210.299 26.6152 209.116 26.6152ZM209.672 24.7141C210.438 24.7141 211.169 24.5183 211.865 24.1265C212.561 23.7348 213.129 23.2624 213.57 22.7094C214.034 22.1333 214.266 21.5918 214.266 21.0848V18.8726H212.804C211.76 18.8726 210.763 18.9418 209.812 19.08C208.884 19.1952 208.118 19.4602 207.515 19.875C206.935 20.2898 206.645 20.9465 206.645 21.8452C206.645 22.8361 206.935 23.562 207.515 24.0228C208.118 24.4837 208.837 24.7141 209.672 24.7141Z" fill="white"/>
<path d="M189.18 26.3733C188.925 26.3733 188.681 26.3041 188.449 26.1659C188.24 26.0046 188.136 25.7741 188.136 25.4746V1.97024C188.136 1.67067 188.252 1.45176 188.484 1.3135C188.716 1.17524 188.983 1.10611 189.284 1.10611C189.563 1.10611 189.818 1.17524 190.05 1.3135C190.305 1.45176 190.433 1.67067 190.433 1.97024V24.2648H200.351C200.629 24.2648 200.826 24.38 200.942 24.6104C201.058 24.8178 201.116 25.0483 201.116 25.3017C201.116 25.5783 201.058 25.8317 200.942 26.0622C200.826 26.2696 200.629 26.3733 200.351 26.3733H189.18Z" fill="white"/>
<path d="M166.827 26.3733C166.526 26.3733 166.259 26.2811 166.027 26.0968C165.818 25.9124 165.714 25.705 165.714 25.4746V10.8881C165.714 10.6116 165.818 10.4042 166.027 10.2659C166.259 10.1046 166.526 10.024 166.827 10.024C167.129 10.024 167.384 10.1046 167.593 10.2659C167.802 10.4042 167.906 10.6116 167.906 10.8881V12.5818C168.161 12.0978 168.509 11.6485 168.95 11.2337C169.391 10.819 169.913 10.4848 170.516 10.2313C171.119 9.95482 171.804 9.81656 172.569 9.81656H173.787C174.043 9.81656 174.251 9.92026 174.414 10.1276C174.599 10.335 174.692 10.577 174.692 10.8535C174.692 11.1531 174.599 11.4066 174.414 11.6139C174.251 11.7983 174.043 11.8904 173.787 11.8904H172.569C171.804 11.8904 171.061 12.0978 170.342 12.5126C169.646 12.9274 169.078 13.5035 168.637 14.2409C168.196 14.9783 167.976 15.877 167.976 16.937V25.4746C167.976 25.705 167.86 25.9124 167.628 26.0968C167.419 26.2811 167.152 26.3733 166.827 26.3733Z" fill="white"/>
<path d="M154.925 26.6152C153.463 26.6152 152.164 26.3387 151.027 25.7857C149.914 25.2326 149.032 24.4722 148.382 23.5044C147.756 22.5135 147.443 21.3613 147.443 20.0478V16.2111C147.443 15.0589 147.744 13.9989 148.348 13.0311C148.951 12.0402 149.751 11.2568 150.749 10.6807C151.77 10.1046 152.883 9.81656 154.09 9.81656C155.25 9.81656 156.317 10.0931 157.291 10.6461C158.289 11.1761 159.089 11.9135 159.692 12.8583C160.296 13.8031 160.597 14.8976 160.597 16.142C160.597 17.0176 160.446 17.6513 160.145 18.0431C159.843 18.4348 159.46 18.6768 158.996 18.7689C158.556 18.8381 158.08 18.8726 157.57 18.8726H149.705V20.1515C149.705 21.5341 150.204 22.6287 151.201 23.4352C152.199 24.2418 153.463 24.645 154.994 24.645C155.922 24.645 156.642 24.5298 157.152 24.2994C157.662 24.0689 158.057 23.8385 158.335 23.6081C158.637 23.3776 158.915 23.2624 159.17 23.2624C159.356 23.2624 159.518 23.3315 159.658 23.4698C159.82 23.585 159.936 23.7233 160.006 23.8846C160.098 24.0459 160.145 24.1957 160.145 24.3339C160.145 24.5874 159.936 24.8985 159.518 25.2672C159.101 25.6359 158.498 25.9585 157.709 26.235C156.92 26.4885 155.992 26.6152 154.925 26.6152ZM149.705 17.2135H156.665C157.361 17.2135 157.825 17.1444 158.057 17.0061C158.289 16.8448 158.405 16.5222 158.405 16.0383C158.405 15.3009 158.219 14.6096 157.848 13.9644C157.477 13.2961 156.966 12.7546 156.317 12.3398C155.667 11.902 154.913 11.6831 154.055 11.6831C153.266 11.6831 152.535 11.8789 151.862 12.2707C151.213 12.6624 150.691 13.1694 150.296 13.7915C149.902 14.4137 149.705 15.1165 149.705 15.9V17.2135Z" fill="white"/>
<path d="M137.247 26.6152C135.785 26.6152 134.486 26.3387 133.349 25.7857C132.235 25.2326 131.354 24.4722 130.704 23.5044C130.078 22.5135 129.765 21.3613 129.765 20.0478V16.2111C129.765 15.0589 130.066 13.9989 130.669 13.0311C131.273 12.0402 132.073 11.2568 133.071 10.6807C134.091 10.1046 135.205 9.81656 136.411 9.81656C137.571 9.81656 138.639 10.0931 139.613 10.6461C140.611 11.1761 141.411 11.9135 142.014 12.8583C142.617 13.8031 142.919 14.8976 142.919 16.142C142.919 17.0176 142.768 17.6513 142.467 18.0431C142.165 18.4348 141.782 18.6768 141.318 18.7689C140.877 18.8381 140.402 18.8726 139.891 18.8726H132.027V20.1515C132.027 21.5341 132.525 22.6287 133.523 23.4352C134.521 24.2418 135.785 24.645 137.316 24.645C138.244 24.645 138.963 24.5298 139.474 24.2994C139.984 24.0689 140.379 23.8385 140.657 23.6081C140.959 23.3776 141.237 23.2624 141.492 23.2624C141.678 23.2624 141.84 23.3315 141.979 23.4698C142.142 23.585 142.258 23.7233 142.327 23.8846C142.42 24.0459 142.467 24.1957 142.467 24.3339C142.467 24.5874 142.258 24.8985 141.84 25.2672C141.423 25.6359 140.819 25.9585 140.031 26.235C139.242 26.4885 138.314 26.6152 137.247 26.6152ZM132.027 17.2135H138.987C139.683 17.2135 140.147 17.1444 140.379 17.0061C140.611 16.8448 140.727 16.5222 140.727 16.0383C140.727 15.3009 140.541 14.6096 140.17 13.9644C139.799 13.2961 139.288 12.7546 138.639 12.3398C137.989 11.902 137.235 11.6831 136.377 11.6831C135.588 11.6831 134.857 11.8789 134.184 12.2707C133.535 12.6624 133.013 13.1694 132.618 13.7915C132.224 14.4137 132.027 15.1165 132.027 15.9V17.2135Z" fill="white"/>
<path d="M118.992 26.3733C118.69 26.3733 118.423 26.2811 118.191 26.0968C117.982 25.9124 117.878 25.705 117.878 25.4746V10.8881C117.878 10.6116 117.982 10.4042 118.191 10.2659C118.423 10.1046 118.69 10.024 118.992 10.024C119.293 10.024 119.548 10.1046 119.757 10.2659C119.966 10.4042 120.07 10.6116 120.07 10.8881V12.5818C120.326 12.0978 120.674 11.6485 121.114 11.2337C121.555 10.819 122.077 10.4848 122.68 10.2313C123.284 9.95482 123.968 9.81656 124.734 9.81656H125.952C126.207 9.81656 126.416 9.92026 126.578 10.1276C126.764 10.335 126.856 10.577 126.856 10.8535C126.856 11.1531 126.764 11.4066 126.578 11.6139C126.416 11.7983 126.207 11.8904 125.952 11.8904H124.734C123.968 11.8904 123.226 12.0978 122.506 12.5126C121.81 12.9274 121.242 13.5035 120.801 14.2409C120.36 14.9783 120.14 15.877 120.14 16.937V25.4746C120.14 25.705 120.024 25.9124 119.792 26.0968C119.583 26.2811 119.316 26.3733 118.992 26.3733Z" fill="white"/>
<path d="M104.533 26.6152C103.21 26.6152 102.085 26.2465 101.157 25.5091C100.252 24.7487 99.7998 23.5965 99.7998 22.0526C99.7998 20.7852 100.136 19.8174 100.809 19.1491C101.505 18.4578 102.456 17.9854 103.663 17.732C104.892 17.4554 106.307 17.3172 107.908 17.3172H109.683V16.5222C109.683 15.7618 109.544 15.0244 109.265 14.31C109.01 13.5726 108.581 12.9735 107.978 12.5126C107.398 12.0287 106.597 11.7868 105.577 11.7868C104.811 11.7868 104.185 11.8674 103.697 12.0287C103.21 12.19 102.827 12.3628 102.549 12.5472C102.271 12.7085 102.039 12.7891 101.853 12.7891C101.575 12.7891 101.343 12.6509 101.157 12.3744C100.995 12.0978 100.913 11.8444 100.913 11.6139C100.913 11.2913 101.157 11.0033 101.644 10.7498C102.131 10.4733 102.735 10.2544 103.454 10.0931C104.196 9.90873 104.927 9.81656 105.646 9.81656C107.201 9.81656 108.43 10.1392 109.335 10.7844C110.263 11.4066 110.924 12.2246 111.319 13.2385C111.736 14.2524 111.945 15.3354 111.945 16.4876V25.4746C111.945 25.7281 111.841 25.947 111.632 26.1313C111.446 26.2926 111.179 26.3733 110.831 26.3733C110.553 26.3733 110.298 26.2926 110.066 26.1313C109.857 25.947 109.753 25.7281 109.753 25.4746V23.9537C109.173 24.645 108.453 25.2672 107.595 25.8202C106.737 26.3502 105.716 26.6152 104.533 26.6152ZM105.089 24.7141C105.855 24.7141 106.586 24.5183 107.282 24.1265C107.978 23.7348 108.546 23.2624 108.987 22.7094C109.451 22.1333 109.683 21.5918 109.683 21.0848V18.8726H108.221C107.177 18.8726 106.18 18.9418 105.229 19.08C104.301 19.1952 103.535 19.4602 102.932 19.875C102.352 20.2898 102.062 20.9465 102.062 21.8452C102.062 22.8361 102.352 23.562 102.932 24.0228C103.535 24.4837 104.254 24.7141 105.089 24.7141Z" fill="white"/>
<path d="M88.4386 26.5807C87.1394 26.5807 85.933 26.3387 84.8194 25.8548C83.7058 25.3709 82.8242 24.5874 82.1746 23.5043C81.525 22.4213 81.2002 20.9811 81.2002 19.1837V8.50306C81.2002 6.70567 81.5366 5.26546 82.2094 4.18241C82.8822 3.09937 83.7638 2.31589 84.8542 1.83198C85.9678 1.34806 87.1858 1.10611 88.5082 1.10611C90.0394 1.10611 91.3386 1.37111 92.4058 1.90111C93.473 2.43111 94.285 3.13393 94.8418 4.00959C95.4218 4.88524 95.7118 5.85306 95.7118 6.91306C95.7118 7.46611 95.6074 7.8348 95.3986 8.01915C95.213 8.18046 94.9346 8.26111 94.5634 8.26111C94.1458 8.26111 93.8442 8.18046 93.6586 8.01915C93.4962 7.8348 93.4034 7.62741 93.3802 7.39698C93.3802 7.02828 93.3106 6.6135 93.1714 6.15263C93.0554 5.66872 92.8234 5.20785 92.4754 4.77002C92.1506 4.30915 91.6634 3.94046 91.0138 3.66393C90.3874 3.36437 89.5638 3.21459 88.543 3.21459C86.919 3.21459 85.6778 3.65241 84.8194 4.52806C83.961 5.38067 83.5318 6.70567 83.5318 8.50306V19.1837C83.5318 21.0041 83.961 22.3407 84.8194 23.1933C85.701 24.0459 86.977 24.4722 88.6474 24.4722C89.6914 24.4722 90.515 24.3339 91.1182 24.0574C91.7214 23.7578 92.1738 23.4007 92.4754 22.9859C92.777 22.548 92.9858 22.0872 93.1018 21.6033C93.241 21.0963 93.3338 20.6354 93.3802 20.2206C93.4266 19.9211 93.531 19.7022 93.6934 19.5639C93.879 19.4026 94.1574 19.322 94.5286 19.322C94.923 19.322 95.213 19.4257 95.3986 19.633C95.6074 19.8174 95.7118 20.1861 95.7118 20.7391C95.7118 21.7761 95.4218 22.7439 94.8418 23.6426C94.2618 24.5183 93.4266 25.2326 92.3362 25.7857C91.269 26.3157 89.9698 26.5807 88.4386 26.5807Z" fill="white"/>
<path d="M171.972 50.9353L171.263 50.3684C171.272 50.2394 171.276 50.0182 171.276 49.7048C171.286 49.3822 171.29 49.0135 171.29 48.5987C171.3 48.1747 171.304 47.7369 171.304 47.2852C171.304 46.8336 171.304 46.4142 171.304 46.027C171.304 45.3726 171.3 44.7274 171.29 44.0914C171.29 43.4554 171.281 42.953 171.263 42.5844H172.613C172.603 42.7595 172.594 43.0452 172.585 43.4416C172.585 43.8287 172.58 44.2527 172.571 44.7136C172.571 45.1652 172.571 45.5846 172.571 45.9717V49.2209C172.961 49.0457 173.397 48.8337 173.879 48.5849C174.362 48.336 174.84 48.0733 175.313 47.7968C175.787 47.5203 176.218 47.2484 176.608 46.981C176.998 46.7137 177.299 46.4787 177.513 46.2759C177.513 46.3957 177.527 46.557 177.554 46.7598C177.582 46.9626 177.615 47.1562 177.652 47.3405C177.698 47.5157 177.731 47.6401 177.749 47.7138C177.443 47.9719 177.039 48.2577 176.538 48.571C176.046 48.8752 175.517 49.184 174.951 49.4974C174.395 49.8016 173.852 50.0827 173.323 50.3408C172.794 50.5897 172.344 50.7878 171.972 50.9353ZM165.903 51.3777C165.848 51.2856 165.764 51.175 165.653 51.0459C165.541 50.9169 165.421 50.7924 165.291 50.6726C165.17 50.5436 165.064 50.4422 164.971 50.3684C165.992 49.8338 166.757 49.2209 167.267 48.5296C167.778 47.8383 168.093 47.0456 168.214 46.1515C168.335 45.2482 168.311 44.2297 168.144 43.0959L169.397 42.9853C169.592 44.285 169.606 45.4556 169.439 46.4971C169.281 47.5295 168.915 48.4466 168.339 49.2485C167.764 50.0504 166.952 50.7602 165.903 51.3777Z" fill="white"/>
<path d="M148.92 47.382C148.92 47.2991 148.92 47.17 148.92 46.9949C148.92 46.8105 148.92 46.6308 148.92 46.4557C148.92 46.2805 148.915 46.1515 148.906 46.0685C149.138 46.0778 149.486 46.087 149.95 46.0962C150.414 46.0962 150.952 46.1008 151.564 46.11C152.186 46.11 152.84 46.1146 153.527 46.1238C154.223 46.1238 154.915 46.1238 155.601 46.1238C156.297 46.1238 156.952 46.1238 157.564 46.1238C158.176 46.1146 158.715 46.1054 159.179 46.0962C159.643 46.087 159.986 46.0778 160.209 46.0685C160.209 46.0962 160.209 46.1377 160.209 46.193C160.209 46.2483 160.209 46.3082 160.209 46.3727C160.209 46.5386 160.204 46.7276 160.195 46.9396C160.195 47.1424 160.2 47.2852 160.209 47.3682C159.921 47.359 159.494 47.3498 158.928 47.3405C158.362 47.3313 157.712 47.3267 156.979 47.3267C156.256 47.3175 155.499 47.3129 154.71 47.3129C153.922 47.3129 153.151 47.3175 152.4 47.3267C151.648 47.3267 150.966 47.3313 150.353 47.3405C149.75 47.3498 149.272 47.3636 148.92 47.382Z" fill="white"/>
<path d="M133.817 52.3317C133.771 52.2303 133.697 52.1059 133.595 51.9584C133.493 51.8109 133.386 51.6681 133.275 51.5298C133.172 51.3915 133.08 51.2856 132.996 51.2118C134.138 50.7602 135.209 50.1841 136.212 49.4836C137.214 48.783 138.105 47.9857 138.884 47.0916C139.673 46.1976 140.299 45.2528 140.763 44.2573C140.476 44.2665 140.156 44.2803 139.803 44.2988C139.46 44.3172 139.116 44.331 138.773 44.3402C138.439 44.3495 138.137 44.3587 137.868 44.3679C137.608 44.3771 137.413 44.3817 137.283 44.3817C136.337 45.6169 135.219 46.663 133.929 47.5202C133.873 47.4465 133.78 47.3497 133.65 47.2299C133.53 47.1101 133.404 46.9949 133.275 46.8842C133.145 46.7644 133.033 46.6769 132.94 46.6216C133.636 46.216 134.295 45.7182 134.917 45.1283C135.539 44.5384 136.086 43.8978 136.56 43.2065C137.033 42.5152 137.399 41.8285 137.659 41.1464L138.884 41.5889C138.773 41.8654 138.648 42.1373 138.508 42.4046C138.379 42.6719 138.235 42.9346 138.077 43.1927C138.383 43.1835 138.722 43.1742 139.093 43.165C139.474 43.1558 139.845 43.1466 140.207 43.1374C140.569 43.1189 140.884 43.1051 141.153 43.0959C141.432 43.0775 141.613 43.0636 141.696 43.0544L142.476 43.5107C142.03 44.7827 141.385 45.9809 140.541 47.1055C139.696 48.23 138.699 49.2393 137.548 50.1334C136.407 51.0182 135.163 51.751 133.817 52.3317Z" fill="white"/>
<path d="M116.583 51.5437C116.491 51.4054 116.361 51.2211 116.194 50.9906C116.036 50.751 115.888 50.5758 115.749 50.4652C116.463 50.1611 117.177 49.7739 117.892 49.3038C118.607 48.8337 119.289 48.3084 119.938 47.7277C120.588 47.1377 121.177 46.5156 121.706 45.8611C122.235 45.1975 122.671 44.5292 123.015 43.8564C122.588 43.884 122.1 43.9163 121.553 43.9531C121.015 43.9808 120.467 44.0131 119.91 44.0499C119.363 44.0868 118.857 44.1191 118.393 44.1467C117.929 44.1744 117.563 44.1974 117.293 44.2158L117.14 42.8747C117.363 42.8747 117.702 42.8701 118.156 42.8609C118.611 42.8517 119.117 42.8378 119.674 42.8194C120.24 42.7918 120.801 42.7641 121.358 42.7364C121.924 42.6996 122.43 42.6673 122.875 42.6397C123.33 42.6028 123.664 42.5659 123.878 42.5291L124.741 43.0821C124.509 43.7181 124.212 44.3403 123.85 44.9486C123.497 45.557 123.089 46.1469 122.625 46.7184C122.94 46.9672 123.279 47.2484 123.641 47.5617C124.003 47.8751 124.36 48.2024 124.713 48.5434C125.065 48.8752 125.395 49.1978 125.701 49.5112C126.007 49.8154 126.258 50.0919 126.453 50.3408C126.295 50.4422 126.105 50.5897 125.882 50.7832C125.669 50.9676 125.497 51.1381 125.367 51.2948C125.181 51.0367 124.945 50.751 124.657 50.4376C124.379 50.115 124.072 49.7877 123.738 49.4559C123.404 49.1149 123.07 48.7877 122.736 48.4743C122.402 48.1609 122.096 47.889 121.817 47.6585C121.047 48.4789 120.207 49.2255 119.298 49.8984C118.388 50.562 117.484 51.1104 116.583 51.5437Z" fill="white"/>
<path d="M102.901 52.6221V47.6032H105.629V45.5017H101.787V44.3541H105.629V42.3908C104.46 42.5014 103.467 42.5659 102.65 42.5844C102.613 42.4553 102.562 42.2664 102.497 42.0175C102.432 41.7686 102.367 41.5797 102.302 41.4506C102.813 41.4598 103.379 41.446 104.001 41.4091C104.632 41.3723 105.272 41.3216 105.922 41.2571C106.571 41.1833 107.184 41.1004 107.759 41.0082C108.334 40.9068 108.826 40.8008 109.235 40.6902L109.986 41.7271C109.615 41.8285 109.156 41.9253 108.608 42.0175C108.07 42.1004 107.495 42.1788 106.882 42.2525V44.3541H110.766V45.5017H106.882V47.6032H109.666V52.6221H102.901ZM104.168 51.516H108.413V48.7093H104.168V51.516ZM99.3514 52.7327L98.2378 51.9308C98.442 51.6727 98.6601 51.3547 98.8921 50.9768C99.1334 50.5989 99.37 50.1979 99.602 49.7739C99.834 49.3407 100.043 48.9259 100.228 48.5296C100.423 48.124 100.572 47.7737 100.674 47.4788C100.748 47.5433 100.85 47.6309 100.98 47.7415C101.11 47.8521 101.24 47.9581 101.37 48.0595C101.509 48.1517 101.62 48.2208 101.704 48.2669C101.611 48.5526 101.467 48.8937 101.272 49.29C101.087 49.6864 100.878 50.1011 100.646 50.5344C100.414 50.9676 100.182 51.3777 99.95 51.7649C99.7273 52.152 99.5278 52.4746 99.3514 52.7327ZM100.507 46.4418C100.34 46.2851 100.108 46.1054 99.8108 45.9026C99.5138 45.6906 99.2076 45.4878 98.8921 45.2943C98.5766 45.0915 98.3028 44.944 98.0708 44.8518L98.725 43.8011C98.9849 43.9209 99.2679 44.073 99.5742 44.2573C99.8897 44.4324 100.196 44.6168 100.493 44.8104C100.79 45.0039 101.036 45.1929 101.231 45.3772C101.184 45.4325 101.11 45.5339 101.008 45.6814C100.906 45.8197 100.804 45.9625 100.702 46.11C100.609 46.2575 100.544 46.3681 100.507 46.4418ZM101.203 43.331C101.036 43.1743 100.804 42.9899 100.507 42.7779C100.21 42.5659 99.9036 42.3631 99.5881 42.1696C99.2726 41.976 98.9988 41.8331 98.7668 41.741L99.421 40.7178C99.6623 40.8192 99.9454 40.9621 100.27 41.1464C100.595 41.3308 100.91 41.5244 101.217 41.7271C101.523 41.9299 101.764 42.1143 101.941 42.2802C101.894 42.3355 101.82 42.4369 101.718 42.5844C101.616 42.7226 101.514 42.8655 101.412 43.013C101.31 43.1512 101.24 43.2572 101.203 43.331Z" fill="white"/>
<path d="M87.144 53.0092C87.0698 52.8986 86.9445 52.7465 86.7682 52.553C86.5919 52.3594 86.4388 52.2165 86.3088 52.1244C87.1255 51.6358 87.7704 51.0321 88.2437 50.3131C88.717 49.585 89.0604 48.7692 89.2738 47.8659C89.4965 46.9534 89.6264 45.9856 89.6636 44.9624H87.7704V43.8425H89.6775V40.4413H90.8885V43.8425H93.9788V44.9624H90.8746C90.8653 45.1468 90.8514 45.3311 90.8328 45.5155C90.8236 45.6998 90.8096 45.8842 90.7911 46.0685H91.6959V51.2533C91.6959 51.3547 91.7191 51.4284 91.7655 51.4745C91.8119 51.5206 91.8954 51.5483 92.016 51.5575C92.0253 51.5575 92.0624 51.5621 92.1274 51.5713C92.2016 51.5713 92.2759 51.5759 92.3501 51.5851C92.4336 51.5851 92.48 51.5851 92.4893 51.5851C92.6656 51.5851 92.8048 51.5621 92.9069 51.516C93.009 51.4607 93.0879 51.3317 93.1436 51.1289C93.1992 50.9169 93.241 50.5804 93.2688 50.1196C93.3988 50.1841 93.5751 50.2578 93.7978 50.3408C94.0298 50.4238 94.2247 50.4883 94.3824 50.5344C94.3175 51.1888 94.2154 51.6727 94.0762 51.9861C93.937 52.3087 93.7421 52.5161 93.4916 52.6083C93.2503 52.7097 92.944 52.7604 92.5728 52.7604H91.7098C91.2829 52.7604 90.972 52.6866 90.7772 52.5391C90.5916 52.4009 90.4988 52.1612 90.4988 51.8202V47.7691C90.2482 48.8476 89.8538 49.8431 89.3156 50.7556C88.7866 51.6589 88.0628 52.4101 87.144 53.0092ZM83.2186 52.9124C83.2 52.7557 83.1629 52.553 83.1072 52.3041C83.0516 52.0552 83.0005 51.8663 82.9541 51.7372H83.7476C83.9332 51.7372 84.0631 51.7096 84.1373 51.6543C84.2116 51.5898 84.2487 51.4699 84.2487 51.2948V47.7691H82.2024V44.2573H87.3668V47.7691H85.404V51.7096C85.404 52.5115 84.9354 52.9124 83.9981 52.9124H83.2186ZM81.4647 43.2618V42.1834H84.2069V40.4413H85.4736V42.1834H88.0906V43.2618H81.4647ZM83.3578 46.7598H86.2114V45.2528H83.3578V46.7598ZM82.286 51.7372C82.1653 51.6635 81.989 51.5805 81.757 51.4884C81.525 51.387 81.3394 51.3317 81.2002 51.3224C81.358 51.092 81.5204 50.8017 81.6874 50.4514C81.8544 50.0919 82.0029 49.7278 82.1328 49.3591C82.272 48.9904 82.3695 48.6678 82.4252 48.3913L83.5666 48.6817C83.4831 48.9951 83.3717 49.3407 83.2325 49.7186C83.0933 50.0873 82.9402 50.4514 82.7732 50.8109C82.6061 51.1704 82.4437 51.4791 82.286 51.7372ZM86.9213 50.9215C86.8471 50.7187 86.7404 50.4837 86.6012 50.2164C86.4712 49.9398 86.332 49.6679 86.1836 49.4006C86.0351 49.1333 85.8912 48.9121 85.752 48.737L86.7404 48.2531C86.8796 48.4466 87.028 48.6771 87.1858 48.9444C87.3436 49.2024 87.492 49.4605 87.6312 49.7186C87.7704 49.9767 87.8818 50.2071 87.9653 50.4099C87.8818 50.4284 87.7704 50.4744 87.6312 50.5482C87.5013 50.6127 87.3668 50.6818 87.2276 50.7556C87.0976 50.8293 86.9956 50.8846 86.9213 50.9215ZM92.7816 43.5245C92.6703 43.3586 92.5218 43.1697 92.3362 42.9577C92.1506 42.7457 91.9557 42.5383 91.7516 42.3355C91.5567 42.1235 91.3757 41.953 91.2087 41.8239L92.0856 41.0773C92.2434 41.2156 92.4197 41.3861 92.6146 41.5889C92.8188 41.7917 93.0136 41.9991 93.1992 42.2111C93.3941 42.4138 93.5519 42.6028 93.6725 42.7779C93.5519 42.8424 93.3988 42.9577 93.2132 43.1236C93.0276 43.2895 92.8837 43.4231 92.7816 43.5245Z" fill="white"/>
</g>
<defs>
<clipPath id="clip0_2494_521">
<rect width="290" height="53" fill="white"/>
</clipPath>
</defs>
</svg>
