<svg width="240" height="44" viewBox="0 0 240 44" fill="none" xmlns="http://www.w3.org/2000/svg">
<g clip-path="url(#clip0_2522_2389)">
<mask id="mask0_2522_2389" style="mask-type:luminance" maskUnits="userSpaceOnUse" x="0" y="8" width="58" height="28">
<path d="M57.6 8.13428H0V35.8734H57.6V8.13428Z" fill="white"/>
</mask>
<g mask="url(#mask0_2522_2389)">
<path d="M50.8872 29.2923C53.4363 26.7557 55.2784 23.6012 56.2321 20.1396C57.1857 16.678 57.218 13.0285 56.3259 9.55065C52.8354 8.6619 49.1728 8.69429 45.6987 9.6446C42.2246 10.5949 39.0588 12.4305 36.5131 14.9703C33.9638 17.5068 32.1216 20.6611 31.1678 24.1226C30.2141 27.5842 30.1816 31.2335 31.0736 34.7114C34.5642 35.6004 38.2269 35.5682 41.7011 34.618C45.1754 33.6678 48.3412 31.8324 50.8872 29.2923Z" fill="white"/>
<path d="M6.86607 29.2977C4.31692 26.7611 2.47482 23.6066 1.52116 20.1451C0.567493 16.6834 0.535162 13.034 1.42734 9.55608C4.91782 8.66734 8.58042 8.69973 12.0545 9.65001C15.5286 10.6004 18.6944 12.4359 21.2402 14.9757C23.7893 17.5124 25.6315 20.6668 26.5852 24.1285C27.5388 27.5902 27.5712 31.2396 26.6788 34.7175C23.1884 35.6063 19.5258 35.574 16.0516 34.6236C12.5775 33.6733 9.41176 31.8378 6.86607 29.2977Z" fill="white"/>
</g>
<path d="M229.763 21.8948C229.514 21.8948 229.293 21.8183 229.101 21.6652C228.928 21.5122 228.842 21.34 228.842 21.1487V0.71739C228.842 0.487825 228.928 0.315651 229.101 0.200869C229.293 0.0669562 229.514 0 229.763 0C230.032 0 230.253 0.0669562 230.426 0.200869C230.618 0.315651 230.714 0.487825 230.714 0.71739V10.3304C231.04 9.77565 231.52 9.27826 232.154 8.83826C232.787 8.37913 233.575 8.14957 234.515 8.14957C235.437 8.14957 236.282 8.39826 237.05 8.89565C237.837 9.37391 238.461 10.0243 238.922 10.847C239.383 11.6504 239.613 12.5496 239.613 13.5443V21.1487C239.613 21.3974 239.517 21.5887 239.325 21.7226C239.133 21.8374 238.912 21.8948 238.663 21.8948C238.451 21.8948 238.24 21.8374 238.029 21.7226C237.837 21.5887 237.741 21.3974 237.741 21.1487V13.5443C237.741 12.913 237.578 12.32 237.251 11.7652C236.925 11.2104 236.493 10.7609 235.955 10.4165C235.418 10.053 234.823 9.8713 234.17 9.8713C233.594 9.8713 233.037 10.0243 232.499 10.3304C231.981 10.6174 231.549 11.0287 231.203 11.5643C230.877 12.1 230.714 12.76 230.714 13.5443V21.1487C230.714 21.34 230.618 21.5122 230.426 21.6652C230.253 21.8183 230.032 21.8948 229.763 21.8948Z" fill="white"/>
<path d="M220.631 22.0957C219.364 22.0957 218.318 21.8565 217.492 21.3783C216.666 20.9 216.052 20.2496 215.649 19.427C215.246 18.6044 215.044 17.6765 215.044 16.6435V13.6018C215.044 12.5687 215.236 11.6409 215.62 10.8183C216.023 9.99567 216.638 9.34525 217.463 8.86699C218.308 8.38873 219.364 8.1496 220.631 8.1496C221.438 8.1496 222.138 8.25482 222.734 8.46525C223.348 8.65655 223.818 8.89568 224.145 9.18264C224.49 9.4696 224.663 9.74697 224.663 10.0148C224.663 10.1487 224.625 10.2922 224.548 10.4452C224.49 10.5791 224.394 10.6939 224.26 10.7896C224.145 10.8852 224.01 10.9331 223.857 10.9331C223.684 10.9331 223.482 10.847 223.252 10.6748C223.041 10.4835 222.743 10.3018 222.359 10.1296C221.975 9.9574 221.428 9.87132 220.718 9.87132C219.47 9.87132 218.519 10.2061 217.866 10.8757C217.233 11.5261 216.916 12.4348 216.916 13.6018V16.6435C216.916 17.8104 217.233 18.7287 217.866 19.3983C218.519 20.0487 219.479 20.3739 220.746 20.3739C221.476 20.3739 222.042 20.2878 222.446 20.1157C222.849 19.9244 223.156 19.7426 223.367 19.5704C223.598 19.3791 223.809 19.2835 224.001 19.2835C224.174 19.2835 224.318 19.3313 224.433 19.427C224.567 19.5226 224.663 19.6374 224.721 19.7713C224.798 19.9052 224.836 20.0487 224.836 20.2018C224.836 20.4504 224.663 20.7278 224.318 21.0339C223.972 21.3209 223.482 21.5696 222.849 21.78C222.234 21.9904 221.495 22.0957 220.631 22.0957Z" fill="white"/>
<path d="M200.755 21.8948C200.505 21.8948 200.285 21.8183 200.093 21.6652C199.92 21.5122 199.833 21.34 199.833 21.1487V9.03916C199.833 8.8096 199.92 8.63742 200.093 8.52264C200.285 8.38873 200.505 8.32177 200.755 8.32177C201.005 8.32177 201.216 8.38873 201.389 8.52264C201.561 8.63742 201.648 8.8096 201.648 9.03916V10.3304C201.955 9.77567 202.435 9.27829 203.088 8.83829C203.741 8.37916 204.547 8.1496 205.507 8.1496C206.429 8.1496 207.273 8.39829 208.041 8.89568C208.829 9.37395 209.453 10.0244 209.913 10.847C210.374 11.6504 210.605 12.5496 210.605 13.5444V21.1487C210.605 21.3974 210.509 21.5887 210.317 21.7226C210.125 21.8374 209.904 21.8948 209.654 21.8948C209.443 21.8948 209.232 21.8374 209.021 21.7226C208.829 21.5887 208.733 21.3974 208.733 21.1487V13.5444C208.733 12.9131 208.569 12.32 208.243 11.7652C207.917 11.2104 207.485 10.7609 206.947 10.4165C206.409 10.0531 205.814 9.87132 205.161 9.87132C204.585 9.87132 204.029 10.0244 203.491 10.3304C202.973 10.6174 202.541 11.0287 202.195 11.5644C201.869 12.1 201.705 12.76 201.705 13.5444V21.1487C201.705 21.34 201.609 21.5122 201.417 21.6652C201.245 21.8183 201.024 21.8948 200.755 21.8948Z" fill="white"/>
<path d="M189.492 22.0956C188.474 22.0956 187.543 21.847 186.698 21.3496C185.872 20.8522 185.21 20.1922 184.711 19.3696C184.231 18.5278 183.991 17.6383 183.991 16.7009V9.06783C183.991 8.87653 184.087 8.70436 184.279 8.55131C184.471 8.39827 184.692 8.32175 184.941 8.32175C185.191 8.32175 185.402 8.39827 185.575 8.55131C185.767 8.70436 185.863 8.87653 185.863 9.06783V16.7009C185.863 17.3322 186.026 17.9252 186.352 18.48C186.679 19.0348 187.111 19.4939 187.648 19.8574C188.186 20.2017 188.791 20.3739 189.463 20.3739C190.154 20.3739 190.768 20.2017 191.306 19.8574C191.844 19.513 192.266 19.0635 192.573 18.5087C192.9 17.9348 193.063 17.3322 193.063 16.7009V9.03914C193.063 8.8287 193.159 8.65653 193.351 8.52262C193.543 8.3887 193.764 8.32175 194.013 8.32175C194.301 8.32175 194.522 8.3887 194.676 8.52262C194.848 8.65653 194.935 8.8287 194.935 9.03914V16.7009C194.935 17.6765 194.685 18.5757 194.186 19.3983C193.706 20.2017 193.044 20.8522 192.199 21.3496C191.373 21.847 190.471 22.0956 189.492 22.0956Z" fill="white"/>
<path d="M173.061 22.0957C171.967 22.0957 171.036 21.7896 170.268 21.1774C169.519 20.5461 169.145 19.5896 169.145 18.3078C169.145 17.2557 169.423 16.4522 169.98 15.8974C170.556 15.3235 171.343 14.9313 172.341 14.7209C173.359 14.4913 174.53 14.3765 175.855 14.3765H177.324V13.7165C177.324 13.0852 177.209 12.4731 176.978 11.88C176.767 11.2678 176.412 10.7704 175.913 10.3878C175.433 9.9861 174.77 9.78523 173.925 9.78523C173.292 9.78523 172.773 9.85219 172.37 9.9861C171.967 10.12 171.65 10.2635 171.42 10.4165C171.189 10.5504 170.997 10.6174 170.844 10.6174C170.613 10.6174 170.421 10.5026 170.268 10.2731C170.133 10.0435 170.066 9.83306 170.066 9.64175C170.066 9.37395 170.268 9.13481 170.671 8.92438C171.074 8.69481 171.573 8.51308 172.169 8.37916C172.783 8.22612 173.388 8.1496 173.983 8.1496C175.269 8.1496 176.287 8.41742 177.036 8.95308C177.804 9.4696 178.351 10.1487 178.677 10.9904C179.023 11.8322 179.196 12.7313 179.196 13.6878V21.1487C179.196 21.3591 179.109 21.5409 178.937 21.6939C178.783 21.8278 178.562 21.8948 178.274 21.8948C178.044 21.8948 177.833 21.8278 177.641 21.6939C177.468 21.5409 177.381 21.3591 177.381 21.1487V19.8861C176.901 20.46 176.306 20.9765 175.596 21.4357C174.885 21.8757 174.041 22.0957 173.061 22.0957ZM173.522 20.5174C174.156 20.5174 174.761 20.3548 175.337 20.0296C175.913 19.7044 176.383 19.3122 176.748 18.8531C177.132 18.3748 177.324 17.9252 177.324 17.5044V15.6678H176.114C175.25 15.6678 174.425 15.7252 173.637 15.84C172.869 15.9357 172.236 16.1557 171.737 16.5C171.257 16.8444 171.017 17.3896 171.017 18.1357C171.017 18.9583 171.257 19.5609 171.737 19.9435C172.236 20.3261 172.831 20.5174 173.522 20.5174Z" fill="white"/>
<path d="M156.563 21.8948C156.352 21.8948 156.15 21.8374 155.958 21.7226C155.785 21.5887 155.699 21.3974 155.699 21.1487V1.63566C155.699 1.38697 155.795 1.20523 155.987 1.09045C156.179 0.975663 156.4 0.918274 156.649 0.918274C156.88 0.918274 157.091 0.975663 157.283 1.09045C157.494 1.20523 157.6 1.38697 157.6 1.63566V20.1443H165.808C166.038 20.1443 166.201 20.24 166.297 20.4313C166.393 20.6035 166.441 20.7948 166.441 21.0052C166.441 21.2348 166.393 21.4452 166.297 21.6365C166.201 21.8087 166.038 21.8948 165.808 21.8948H156.563Z" fill="white"/>
<path d="M138.064 21.8948C137.815 21.8948 137.594 21.8183 137.402 21.6652C137.229 21.5122 137.143 21.34 137.143 21.1487V9.03916C137.143 8.8096 137.229 8.63742 137.402 8.52264C137.594 8.38873 137.815 8.32177 138.064 8.32177C138.314 8.32177 138.525 8.38873 138.698 8.52264C138.871 8.63742 138.957 8.8096 138.957 9.03916V10.4452C139.168 10.0435 139.456 9.67045 139.821 9.32612C140.186 8.98177 140.618 8.70438 141.117 8.49395C141.616 8.26438 142.183 8.1496 142.816 8.1496H143.824C144.035 8.1496 144.208 8.23568 144.343 8.40786C144.496 8.58003 144.573 8.7809 144.573 9.01047C144.573 9.25916 144.496 9.4696 144.343 9.64175C144.208 9.7948 144.035 9.87132 143.824 9.87132H142.816C142.183 9.87132 141.568 10.0435 140.973 10.3878C140.397 10.7322 139.927 11.2104 139.562 11.8226C139.197 12.4348 139.015 13.1809 139.015 14.0609V21.1487C139.015 21.34 138.919 21.5122 138.727 21.6652C138.554 21.8183 138.333 21.8948 138.064 21.8948Z" fill="white"/>
<path d="M128.214 22.0957C127.004 22.0957 125.929 21.8661 124.988 21.407C124.067 20.9478 123.337 20.3165 122.8 19.5131C122.281 18.6904 122.022 17.7339 122.022 16.6435V13.4583C122.022 12.5018 122.272 11.6218 122.771 10.8183C123.27 9.99567 123.932 9.34525 124.758 8.86699C125.603 8.38873 126.524 8.1496 127.523 8.1496C128.483 8.1496 129.366 8.37916 130.172 8.83829C130.998 9.27829 131.66 9.89045 132.16 10.6748C132.659 11.4591 132.908 12.3678 132.908 13.4009C132.908 14.1278 132.784 14.6539 132.534 14.9791C132.284 15.3044 131.968 15.5052 131.584 15.5818C131.219 15.6391 130.825 15.6678 130.403 15.6678H123.894V16.7296C123.894 17.8774 124.307 18.7861 125.132 19.4557C125.958 20.1252 127.004 20.46 128.272 20.46C129.04 20.46 129.635 20.3644 130.057 20.1731C130.48 19.9818 130.806 19.7904 131.036 19.5991C131.286 19.4078 131.516 19.3122 131.728 19.3122C131.881 19.3122 132.016 19.3696 132.131 19.4844C132.265 19.58 132.361 19.6948 132.419 19.8287C132.496 19.9626 132.534 20.087 132.534 20.2018C132.534 20.4122 132.361 20.6704 132.016 20.9765C131.67 21.2826 131.171 21.5504 130.518 21.78C129.865 21.9904 129.097 22.0957 128.214 22.0957ZM123.894 14.2904H129.654C130.23 14.2904 130.614 14.2331 130.806 14.1183C130.998 13.9844 131.094 13.7165 131.094 13.3148C131.094 12.7026 130.94 12.1287 130.633 11.5931C130.326 11.0383 129.904 10.5887 129.366 10.2444C128.828 9.88088 128.204 9.69914 127.494 9.69914C126.841 9.69914 126.236 9.86175 125.68 10.187C125.142 10.5122 124.71 10.9331 124.384 11.4496C124.057 11.9661 123.894 12.5496 123.894 13.2V14.2904Z" fill="white"/>
<path d="M113.584 22.0957C112.374 22.0957 111.299 21.8661 110.358 21.407C109.436 20.9478 108.707 20.3165 108.169 19.5131C107.651 18.6904 107.392 17.7339 107.392 16.6435V13.4583C107.392 12.5018 107.641 11.6218 108.14 10.8183C108.64 9.99567 109.302 9.34525 110.128 8.86699C110.972 8.38873 111.894 8.1496 112.892 8.1496C113.852 8.1496 114.736 8.37916 115.542 8.83829C116.368 9.27829 117.03 9.89045 117.529 10.6748C118.028 11.4591 118.278 12.3678 118.278 13.4009C118.278 14.1278 118.153 14.6539 117.904 14.9791C117.654 15.3044 117.337 15.5052 116.953 15.5818C116.588 15.6391 116.195 15.6678 115.772 15.6678H109.264V16.7296C109.264 17.8774 109.676 18.7861 110.502 19.4557C111.328 20.1252 112.374 20.46 113.641 20.46C114.409 20.46 115.004 20.3644 115.427 20.1731C115.849 19.9818 116.176 19.7904 116.406 19.5991C116.656 19.4078 116.886 19.3122 117.097 19.3122C117.251 19.3122 117.385 19.3696 117.5 19.4844C117.635 19.58 117.731 19.6948 117.788 19.8287C117.865 19.9626 117.904 20.087 117.904 20.2018C117.904 20.4122 117.731 20.6704 117.385 20.9765C117.04 21.2826 116.54 21.5504 115.888 21.78C115.235 21.9904 114.467 22.0957 113.584 22.0957ZM109.264 14.2904H115.024C115.6 14.2904 115.984 14.2331 116.176 14.1183C116.368 13.9844 116.464 13.7165 116.464 13.3148C116.464 12.7026 116.31 12.1287 116.003 11.5931C115.696 11.0383 115.273 10.5887 114.736 10.2444C114.198 9.88088 113.574 9.69914 112.864 9.69914C112.211 9.69914 111.606 9.86175 111.049 10.187C110.512 10.5122 110.08 10.9331 109.753 11.4496C109.427 11.9661 109.264 12.5496 109.264 13.2V14.2904Z" fill="white"/>
<path d="M98.4758 21.8948C98.2262 21.8948 98.0054 21.8183 97.8134 21.6652C97.6406 21.5122 97.5542 21.34 97.5542 21.1487V9.03916C97.5542 8.8096 97.6406 8.63742 97.8134 8.52264C98.0054 8.38873 98.2262 8.32177 98.4758 8.32177C98.7254 8.32177 98.9366 8.38873 99.1094 8.52264C99.2822 8.63742 99.3686 8.8096 99.3686 9.03916V10.4452C99.5798 10.0435 99.8678 9.67045 100.233 9.32612C100.597 8.98177 101.029 8.70438 101.529 8.49395C102.028 8.26438 102.594 8.1496 103.228 8.1496H104.236C104.447 8.1496 104.62 8.23568 104.754 8.40786C104.908 8.58003 104.985 8.7809 104.985 9.01047C104.985 9.25916 104.908 9.4696 104.754 9.64175C104.62 9.7948 104.447 9.87132 104.236 9.87132H103.228C102.594 9.87132 101.98 10.0435 101.385 10.3878C100.809 10.7322 100.338 11.2104 99.9734 11.8226C99.6086 12.4348 99.4262 13.1809 99.4262 14.0609V21.1487C99.4262 21.34 99.3302 21.5122 99.1382 21.6652C98.9654 21.8183 98.7446 21.8948 98.4758 21.8948Z" fill="white"/>
<path d="M86.5096 22.0957C85.4152 22.0957 84.484 21.7896 83.716 21.1774C82.9672 20.5461 82.5928 19.5896 82.5928 18.3078C82.5928 17.2557 82.8712 16.4522 83.428 15.8974C84.004 15.3235 84.7912 14.9313 85.7896 14.7209C86.8072 14.4913 87.9784 14.3765 89.3032 14.3765H90.772V13.7165C90.772 13.0852 90.6568 12.4731 90.4264 11.88C90.2152 11.2678 89.86 10.7704 89.3608 10.3878C88.8808 9.9861 88.2184 9.78523 87.3736 9.78523C86.74 9.78523 86.2216 9.85219 85.8184 9.9861C85.4152 10.12 85.0984 10.2635 84.868 10.4165C84.6376 10.5504 84.4456 10.6174 84.292 10.6174C84.0616 10.6174 83.8696 10.5026 83.716 10.2731C83.5816 10.0435 83.5144 9.83306 83.5144 9.64175C83.5144 9.37395 83.716 9.13481 84.1192 8.92438C84.5224 8.69481 85.0216 8.51308 85.6168 8.37916C86.2312 8.22612 86.836 8.1496 87.4312 8.1496C88.7176 8.1496 89.7352 8.41742 90.484 8.95308C91.252 9.4696 91.7992 10.1487 92.1256 10.9904C92.4712 11.8322 92.644 12.7313 92.644 13.6878V21.1487C92.644 21.3591 92.5576 21.5409 92.3848 21.6939C92.2312 21.8278 92.0104 21.8948 91.7224 21.8948C91.492 21.8948 91.2808 21.8278 91.0888 21.6939C90.916 21.5409 90.8296 21.3591 90.8296 21.1487V19.8861C90.3496 20.46 89.7544 20.9765 89.044 21.4357C88.3336 21.8757 87.4888 22.0957 86.5096 22.0957ZM86.9704 20.5174C87.604 20.5174 88.2088 20.3548 88.7848 20.0296C89.3608 19.7044 89.8312 19.3122 90.196 18.8531C90.58 18.3748 90.772 17.9252 90.772 17.5044V15.6678H89.5624C88.6984 15.6678 87.8728 15.7252 87.0856 15.84C86.3176 15.9357 85.684 16.1557 85.1848 16.5C84.7048 16.8444 84.4648 17.3896 84.4648 18.1357C84.4648 18.9583 84.7048 19.5609 85.1848 19.9435C85.684 20.3261 86.2792 20.5174 86.9704 20.5174Z" fill="white"/>
<path d="M73.1906 22.0669C72.1154 22.0669 71.117 21.8661 70.1954 21.4643C69.2738 21.0626 68.5442 20.4122 68.0066 19.513C67.469 18.6139 67.2002 17.4183 67.2002 15.9261V7.05914C67.2002 5.56697 67.4786 4.37132 68.0354 3.47219C68.5922 2.57305 69.3218 1.92262 70.2242 1.52088C71.1458 1.11914 72.1538 0.918274 73.2482 0.918274C74.5154 0.918274 75.5906 1.13827 76.4738 1.57827C77.357 2.01827 78.029 2.60175 78.4898 3.32871C78.9698 4.05566 79.2098 4.85914 79.2098 5.73914C79.2098 6.19827 79.1234 6.50436 78.9506 6.6574C78.797 6.79132 78.5666 6.85827 78.2594 6.85827C77.9138 6.85827 77.6642 6.79132 77.5106 6.6574C77.3762 6.50436 77.2994 6.33219 77.2802 6.14088C77.2802 5.83479 77.2226 5.49045 77.1074 5.10784C77.0114 4.7061 76.8194 4.32349 76.5314 3.96001C76.2626 3.5774 75.8594 3.27132 75.3218 3.04175C74.8034 2.79305 74.1218 2.66871 73.277 2.66871C71.933 2.66871 70.9058 3.03219 70.1954 3.75914C69.485 4.46697 69.1298 5.56697 69.1298 7.05914V15.9261C69.1298 17.4374 69.485 18.5469 70.1954 19.2548C70.925 19.9626 71.981 20.3165 73.3634 20.3165C74.2274 20.3165 74.909 20.2017 75.4082 19.9722C75.9074 19.7235 76.2818 19.4269 76.5314 19.0826C76.781 18.7191 76.9538 18.3365 77.0498 17.9348C77.165 17.5139 77.2418 17.1313 77.2802 16.7869C77.3186 16.5383 77.405 16.3565 77.5394 16.2417C77.693 16.1078 77.9234 16.0409 78.2306 16.0409C78.557 16.0409 78.797 16.1269 78.9506 16.2991C79.1234 16.4522 79.2098 16.7583 79.2098 17.2174C79.2098 18.0783 78.9698 18.8817 78.4898 19.6278C78.0098 20.3548 77.3186 20.9478 76.4162 21.4069C75.533 21.8469 74.4578 22.0669 73.1906 22.0669Z" fill="white"/>
<path d="M142.322 42.2859L141.734 41.8153C141.742 41.7082 141.746 41.5245 141.746 41.2643C141.754 40.9965 141.757 40.6904 141.757 40.3461C141.765 39.9941 141.769 39.6306 141.769 39.2556C141.769 38.8807 141.769 38.5325 141.769 38.2111C141.769 37.6678 141.765 37.1322 141.757 36.6042C141.757 36.0762 141.75 35.6591 141.734 35.353H142.852C142.844 35.4984 142.836 35.7356 142.829 36.0647C142.829 36.3861 142.825 36.7381 142.817 37.1207C142.817 37.4956 142.817 37.8438 142.817 38.1652V40.8626C143.14 40.7172 143.501 40.5412 143.9 40.3346C144.3 40.128 144.695 39.9099 145.087 39.6803C145.478 39.4508 145.836 39.225 146.158 39.0031C146.481 38.7812 146.73 38.5861 146.907 38.4177C146.907 38.5172 146.918 38.6511 146.941 38.8195C146.964 38.9878 146.991 39.1485 147.022 39.3016C147.06 39.4469 147.087 39.5502 147.103 39.6115C146.849 39.8257 146.515 40.0629 146.1 40.3231C145.693 40.5756 145.256 40.832 144.787 41.0922C144.326 41.3447 143.877 41.5781 143.439 41.7923C143.002 41.9989 142.629 42.1635 142.322 42.2859ZM137.299 42.6532C137.253 42.5767 137.184 42.4849 137.092 42.3777C137 42.2706 136.9 42.1673 136.792 42.0678C136.692 41.9607 136.604 41.8765 136.527 41.8153C137.372 41.3715 138.006 40.8626 138.428 40.2887C138.851 39.7148 139.112 39.0567 139.211 38.3144C139.311 37.5645 139.292 36.7189 139.154 35.7777L140.191 35.6859C140.352 36.7649 140.363 37.7367 140.225 38.6014C140.095 39.4584 139.791 40.2198 139.315 40.8856C138.839 41.5513 138.167 42.1405 137.299 42.6532Z" fill="white"/>
<path d="M123.244 39.336C123.244 39.2671 123.244 39.16 123.244 39.0146C123.244 38.8616 123.244 38.7124 123.244 38.567C123.244 38.4216 123.24 38.3144 123.232 38.2456C123.424 38.2532 123.712 38.2609 124.096 38.2685C124.48 38.2685 124.926 38.2724 125.433 38.28C125.947 38.28 126.489 38.2838 127.057 38.2915C127.633 38.2915 128.205 38.2915 128.774 38.2915C129.35 38.2915 129.891 38.2915 130.398 38.2915C130.905 38.2838 131.35 38.2762 131.734 38.2685C132.118 38.2609 132.402 38.2532 132.587 38.2456C132.587 38.2685 132.587 38.303 132.587 38.3489C132.587 38.3948 132.587 38.4445 132.587 38.4981C132.587 38.6358 132.583 38.7927 132.575 38.9687C132.575 39.1371 132.579 39.2557 132.587 39.3245C132.349 39.3169 131.995 39.3092 131.527 39.3016C131.058 39.2939 130.521 39.2901 129.914 39.2901C129.315 39.2824 128.689 39.2786 128.036 39.2786C127.383 39.2786 126.746 39.2824 126.124 39.2901C125.502 39.2901 124.937 39.2939 124.431 39.3016C123.931 39.3092 123.536 39.3207 123.244 39.336Z" fill="white"/>
<path d="M110.746 43.4452C110.707 43.361 110.646 43.2577 110.561 43.1353C110.477 43.0129 110.389 42.8943 110.297 42.7795C110.212 42.6647 110.135 42.5767 110.066 42.5155C111.011 42.1405 111.898 41.6623 112.727 41.0807C113.557 40.4991 114.294 39.8372 114.939 39.095C115.592 38.3527 116.11 37.5683 116.494 36.7419C116.256 36.7496 115.991 36.761 115.699 36.7763C115.415 36.7917 115.131 36.8031 114.847 36.8108C114.57 36.8184 114.321 36.8261 114.098 36.8337C113.883 36.8414 113.722 36.8452 113.614 36.8452C112.831 37.8706 111.905 38.7391 110.838 39.4508C110.792 39.3896 110.715 39.3092 110.608 39.2097C110.508 39.1103 110.404 39.0146 110.297 38.9228C110.189 38.8233 110.097 38.7506 110.02 38.7047C110.596 38.368 111.141 37.9548 111.656 37.465C112.17 36.9753 112.624 36.4435 113.015 35.8696C113.407 35.2956 113.71 34.7256 113.925 34.1593L114.939 34.5266C114.847 34.7562 114.743 34.9819 114.628 35.2038C114.521 35.4257 114.401 35.6438 114.271 35.8581C114.524 35.8504 114.805 35.8428 115.112 35.8351C115.427 35.8275 115.734 35.8198 116.033 35.8122C116.333 35.7969 116.594 35.7854 116.817 35.7777C117.047 35.7624 117.197 35.751 117.266 35.7433L117.911 36.1221C117.543 37.1781 117.009 38.1729 116.31 39.1064C115.611 40.04 114.785 40.8779 113.833 41.6202C112.889 42.3548 111.859 42.9631 110.746 43.4452Z" fill="white"/>
<path d="M96.483 42.791C96.4062 42.6762 96.2987 42.5231 96.1604 42.3318C96.0299 42.1329 95.9072 41.9875 95.792 41.8957C96.3832 41.6431 96.9745 41.3217 97.5659 40.9315C98.1572 40.5412 98.7217 40.105 99.2593 39.623C99.7969 39.1332 100.285 38.6167 100.722 38.0734C101.16 37.5224 101.521 36.9677 101.805 36.409C101.452 36.432 101.049 36.4588 100.596 36.4894C100.15 36.5123 99.6971 36.5391 99.2363 36.5697C98.7832 36.6003 98.3646 36.6271 97.9806 36.6501C97.5966 36.673 97.2932 36.6922 97.0705 36.7075L96.9438 35.5941C97.1281 35.5941 97.4084 35.5903 97.7848 35.5826C98.1611 35.575 98.5796 35.5635 99.0404 35.5482C99.5089 35.5252 99.9736 35.5023 100.434 35.4793C100.903 35.4487 101.321 35.4219 101.69 35.399C102.066 35.3683 102.343 35.3377 102.519 35.3071L103.234 35.7663C103.042 36.2943 102.796 36.8108 102.496 37.3158C102.205 37.8209 101.867 38.3106 101.483 38.785C101.744 38.9917 102.024 39.225 102.324 39.4852C102.623 39.7454 102.919 40.017 103.211 40.3002C103.503 40.5757 103.775 40.8435 104.029 41.1037C104.282 41.3562 104.489 41.5857 104.651 41.7924C104.52 41.8765 104.363 41.999 104.178 42.1597C104.002 42.3127 103.86 42.4543 103.752 42.5843C103.599 42.3701 103.403 42.1329 103.165 41.8727C102.934 41.6049 102.681 41.3332 102.404 41.0577C102.128 40.7746 101.851 40.503 101.575 40.2428C101.298 39.9826 101.045 39.7569 100.815 39.5656C100.177 40.2466 99.482 40.8664 98.7294 41.425C97.9768 41.976 97.228 42.4313 96.483 42.791Z" fill="white"/>
<path d="M85.1596 43.6863V39.5196H87.4175V37.775H84.238V36.8223H87.4175V35.1923C86.4498 35.2842 85.628 35.3377 84.9522 35.353C84.9215 35.2459 84.8792 35.089 84.8255 34.8824C84.7717 34.6758 84.718 34.519 84.6642 34.4118C85.0866 34.4195 85.5551 34.408 86.0696 34.3774C86.5919 34.3468 87.1218 34.3047 87.6594 34.2511C88.197 34.1899 88.7039 34.121 89.18 34.0445C89.6562 33.9603 90.0632 33.8723 90.4012 33.7805L91.0232 34.6414C90.716 34.7256 90.3359 34.8059 89.8827 34.8824C89.4373 34.9513 88.9612 35.0163 88.4543 35.0776V36.8223H91.6684V37.775H88.4543V39.5196H90.7583V43.6863H85.1596ZM86.2079 42.768H89.7215V40.4379H86.2079V42.768ZM82.222 43.7781L81.3003 43.1123C81.4693 42.8981 81.6498 42.6341 81.8418 42.3203C82.0415 42.0066 82.2373 41.6737 82.4293 41.3217C82.6213 40.9621 82.7941 40.6177 82.9477 40.2887C83.109 39.952 83.2319 39.6612 83.3164 39.4163C83.3778 39.4699 83.4623 39.5426 83.5698 39.6344C83.6773 39.7263 83.7848 39.8143 83.8924 39.8984C84.0076 39.975 84.0997 40.0323 84.1688 40.0706C84.092 40.3078 83.973 40.5909 83.8117 40.92C83.6581 41.249 83.4853 41.5934 83.2933 41.953C83.1013 42.3127 82.9093 42.6532 82.7173 42.9746C82.533 43.296 82.3679 43.5638 82.222 43.7781ZM83.1781 38.5555C83.0399 38.4254 82.8479 38.2762 82.6021 38.1078C82.3563 37.9318 82.1029 37.7635 81.8418 37.6028C81.5807 37.4344 81.3541 37.312 81.1621 37.2355L81.7036 36.3631C81.9186 36.4626 82.1528 36.5889 82.4063 36.7419C82.6674 36.8873 82.9208 37.0403 83.1666 37.201C83.4123 37.3617 83.6159 37.5186 83.7771 37.6716C83.7387 37.7176 83.6773 37.8017 83.5928 37.9242C83.5083 38.0389 83.4239 38.1576 83.3394 38.28C83.2626 38.4024 83.2088 38.4943 83.1781 38.5555ZM83.7541 35.9729C83.6159 35.8428 83.4239 35.6897 83.1781 35.5137C82.9323 35.3377 82.6789 35.1694 82.4178 35.0087C82.1567 34.848 81.9301 34.7294 81.7381 34.6529L82.2796 33.8035C82.4792 33.8876 82.7135 34.0063 82.9823 34.1593C83.2511 34.3123 83.5122 34.473 83.7656 34.6414C84.0191 34.8097 84.2187 34.9628 84.3647 35.1005C84.3263 35.1464 84.2648 35.2306 84.1803 35.353C84.0959 35.4678 84.0114 35.5864 83.9269 35.7089C83.8424 35.8236 83.7848 35.9116 83.7541 35.9729Z" fill="white"/>
<path d="M72.1192 44.0077C72.0578 43.9158 71.9541 43.7896 71.8082 43.6289C71.6623 43.4682 71.5356 43.3496 71.428 43.273C72.1039 42.8675 72.6376 42.3663 73.0293 41.7694C73.421 41.1649 73.7052 40.4877 73.8818 39.7377C74.0661 38.9802 74.1736 38.1767 74.2044 37.3273H72.6376V36.3976H74.2159V33.5739H75.2181V36.3976H77.7756V37.3273H75.2066C75.1989 37.4803 75.1874 37.6334 75.172 37.7864C75.1644 37.9395 75.1528 38.0925 75.1375 38.2456H75.8863V42.5499C75.8863 42.6341 75.9055 42.6953 75.9439 42.7336C75.9823 42.7718 76.0514 42.7948 76.1512 42.8024C76.1589 42.8024 76.1896 42.8063 76.2434 42.8139C76.3048 42.8139 76.3663 42.8177 76.4277 42.8254C76.4968 42.8254 76.5352 42.8254 76.5429 42.8254C76.6888 42.8254 76.804 42.8063 76.8885 42.768C76.973 42.7221 77.0383 42.615 77.0844 42.4466C77.1304 42.2706 77.165 41.9913 77.188 41.6087C77.2956 41.6623 77.4415 41.7235 77.6258 41.7924C77.8178 41.8612 77.9791 41.9148 78.1096 41.953C78.0559 42.4964 77.9714 42.8981 77.8562 43.1583C77.741 43.4261 77.5797 43.5983 77.3724 43.6748C77.1727 43.759 76.9192 43.801 76.612 43.801H75.8978C75.5445 43.801 75.2872 43.7398 75.126 43.6174C74.9724 43.5026 74.8956 43.3037 74.8956 43.0205V39.6574C74.6882 40.5527 74.3618 41.3791 73.9164 42.1367C73.4786 42.8866 72.8796 43.5103 72.1192 44.0077ZM68.8706 43.9273C68.8552 43.7972 68.8245 43.6289 68.7784 43.4223C68.7324 43.2157 68.6901 43.0588 68.6517 42.9517H69.3084C69.462 42.9517 69.5695 42.9287 69.6309 42.8828C69.6924 42.8292 69.7231 42.7297 69.7231 42.5844V39.6574H68.0296V36.7419H72.3036V39.6574H70.6792V42.9287C70.6792 43.5944 70.2914 43.9273 69.5157 43.9273H68.8706ZM67.4191 35.9155V35.0202H69.6885V33.5739H70.7368V35.0202H72.9026V35.9155H67.4191ZM68.9858 38.8195H71.3474V37.5684H68.9858V38.8195ZM68.0988 42.9517C67.9989 42.8904 67.853 42.8216 67.661 42.745C67.469 42.6609 67.3154 42.615 67.2002 42.6073C67.3308 42.416 67.4652 42.175 67.6034 41.8842C67.7416 41.5857 67.8645 41.2835 67.972 40.9774C68.0872 40.6713 68.1679 40.4035 68.214 40.1739L69.1586 40.415C69.0895 40.6751 68.9973 40.9621 68.8821 41.2758C68.7669 41.5819 68.6402 41.8842 68.502 42.1826C68.3637 42.481 68.2293 42.7374 68.0988 42.9517ZM71.9349 42.2744C71.8735 42.1061 71.7852 41.911 71.67 41.689C71.5624 41.4595 71.4472 41.2337 71.3244 41.0118C71.2015 40.7899 71.0824 40.6063 70.9672 40.4609L71.7852 40.0591C71.9004 40.2198 72.0232 40.4111 72.1538 40.633C72.2844 40.8473 72.4072 41.0616 72.5224 41.2758C72.6376 41.4901 72.7298 41.6814 72.7989 41.8497C72.7298 41.865 72.6376 41.9033 72.5224 41.9645C72.4149 42.0181 72.3036 42.0755 72.1884 42.1367C72.0808 42.1979 71.9964 42.2438 71.9349 42.2744ZM76.7848 36.1336C76.6927 35.9958 76.5698 35.839 76.4162 35.663C76.2626 35.487 76.1013 35.3148 75.9324 35.1464C75.7711 34.9704 75.6213 34.8289 75.4831 34.7217L76.2088 34.1019C76.3394 34.2167 76.4853 34.3583 76.6466 34.5266C76.8156 34.695 76.9768 34.8671 77.1304 35.0431C77.2917 35.2115 77.4223 35.3683 77.5221 35.5137C77.4223 35.5673 77.2956 35.663 77.142 35.8007C76.9884 35.9384 76.8693 36.0494 76.7848 36.1336Z" fill="white"/>
</g>
<defs>
<clipPath id="clip0_2522_2389">
<rect width="240" height="44" fill="white"/>
</clipPath>
</defs>
</svg>
