<svg width="500" height="500" viewBox="0 0 500 500" fill="none" xmlns="http://www.w3.org/2000/svg">
<rect width="500" height="500" fill="white"/>
<path d="M392.583 290.253C409.096 276.036 421.029 258.356 427.207 238.955C433.385 219.553 433.594 199.099 427.814 179.607C405.204 174.625 381.478 174.807 358.972 180.133C336.468 185.459 315.96 195.747 299.469 209.982C282.955 224.199 271.021 241.878 264.843 261.279C258.665 280.68 258.454 301.133 264.233 320.626C286.844 325.608 310.571 325.428 333.077 320.103C355.583 314.777 376.091 304.49 392.583 290.253Z" fill="#87D303"/>
<path d="M107.417 290.281C90.9037 276.064 78.9708 258.384 72.793 238.983C66.6153 219.581 66.4059 199.127 72.1853 179.634C94.7963 174.653 118.522 174.835 141.027 180.161C163.532 185.488 184.04 195.775 200.531 210.01C217.044 224.228 228.978 241.907 235.155 261.309C241.333 280.711 241.543 301.165 235.762 320.657C213.151 325.639 189.425 325.458 166.92 320.131C144.415 314.805 123.908 304.517 107.417 290.281Z" fill="#A5DF40"/>
</svg>
